<svg xmlns="http://www.w3.org/2000/svg" width="24" height="20" viewBox="0 0 24 20">
    <path fill="#F7F8F8" fill-rule="nonzero" d="M23.567 2.51a9.494 9.494 0 0 1-2.727.748A4.758 4.758 0 0 0 22.927.633a9.53 9.53 0 0 1-3.014 1.15A4.735 4.735 0 0 0 16.45.285a4.746 4.746 0 0 0-4.623 5.827 13.476 13.476 0 0 1-9.783-4.96 4.728 4.728 0 0 0-.641 2.387c0 1.646.836 3.1 2.11 3.952a4.742 4.742 0 0 1-2.15-.595v.06c0 2.3 1.637 4.216 3.806 4.655a4.749 4.749 0 0 1-2.144.079 4.757 4.757 0 0 0 4.434 3.297 9.514 9.514 0 0 1-5.894 2.03c-.384 0-.76-.021-1.13-.066a13.409 13.409 0 0 0 7.274 2.133c8.73 0 13.504-7.232 13.504-13.502 0-.206-.006-.413-.013-.615a9.648 9.648 0 0 0 2.367-2.457z"/>
</svg>
