<svg xmlns="http://www.w3.org/2000/svg" width="17" height="20" viewBox="0 0 17 20">
    <path fill="#F7F8F8" fill-rule="nonzero" d="M3.151 0l1.38 4.531v2.943h1.146V4.375L7.031 0H5.86L5.13 2.995h-.052L4.323 0H3.15zm5.365 1.823c-.466 0-.843.137-1.12.39-.277.251-.417.59-.417 1.016v2.865c0 .468.147.843.417 1.12.27.276.618.416 1.068.416.465 0 .826-.15 1.093-.416.264-.27.39-.622.39-1.094V3.255c0-.42-.12-.775-.39-1.041-.27-.267-.615-.391-1.041-.391zm2.317.13V6.59c0 .332.062.566.183.729.12.162.309.234.546.234.193 0 .372-.039.573-.156a2.3 2.3 0 0 0 .6-.521v.599h1.015v-5.52h-1.016v4.192c-.094.12-.195.234-.312.312a.515.515 0 0 1-.287.104c-.094 0-.166-.019-.208-.078a.478.478 0 0 1-.078-.286V1.953h-1.016zm-2.37.833c.137 0 .258.03.34.105.084.074.103.166.103.286v3.02c0 .15-.023.258-.104.34a.461.461 0 0 1-.338.13.404.404 0 0 1-.313-.13c-.075-.085-.104-.19-.104-.34v-3.02c0-.12.026-.212.104-.286.078-.075.186-.105.313-.105zm-.13 5.99c-1.979-.003-3.91.023-5.807.104-1.325 0-2.422 1.084-2.422 2.396A40.029 40.029 0 0 0 0 14.401 37.952 37.952 0 0 0 .104 17.5c0 1.315 1.094 2.396 2.422 2.396 1.898.078 3.828.107 5.807.104 1.983.003 3.913-.026 5.808-.104 1.328 0 2.421-1.08 2.421-2.396.079-1.042.108-2.06.105-3.099a38.492 38.492 0 0 0-.105-3.125c0-1.312-1.093-2.396-2.421-2.396a135.575 135.575 0 0 0-5.808-.104zm-7.03 1.719h3.489a.1.1 0 0 1 .104.104v1.068a.1.1 0 0 1-.104.104H3.724v6.198a.1.1 0 0 1-.104.104H2.474c-.062 0-.13-.042-.13-.104V11.77H1.302c-.062 0-.13-.042-.13-.104v-1.068c0-.062.068-.104.13-.104zm7.343 0H9.66c.062 0 .13.042.13.104v2.083c.085-.078.17-.13.261-.182.173-.094.345-.156.52-.156.359 0 .616.127.808.39.182.254.287.629.287 1.094v3.021c0 .413-.085.739-.26.963-.183.235-.447.339-.782.339-.212 0-.4-.042-.573-.13a1.348 1.348 0 0 1-.26-.182v.13c0 .062-.069.104-.13.104H8.645a.1.1 0 0 1-.104-.104v-7.37a.1.1 0 0 1 .104-.104zm5.208 1.77c.495 0 .876.17 1.146.47.267.296.417.706.417 1.25v1.406c0 .061-.069.104-.13.104h-1.823v.911c0 .332.042.46.078.521.029.049.1.13.26.13.127 0 .215-.042.26-.104.023-.032.079-.15.079-.547v-.39a.1.1 0 0 1 .104-.105h1.041a.1.1 0 0 1 .105.105v.416c0 .586-.12 1.026-.391 1.328-.273.306-.687.47-1.224.47-.485 0-.892-.17-1.172-.496-.277-.319-.416-.752-.416-1.302v-2.448c0-.5.162-.905.468-1.224a1.609 1.609 0 0 1 1.198-.494zm-9.088.157H5.78c.062 0 .13.042.13.104v4.167c0 .136.01.189.027.208.006.01.019.052.104.052.029 0 .114-.023.234-.104a1.18 1.18 0 0 0 .26-.234v-4.089a.1.1 0 0 1 .105-.104h1.015a.1.1 0 0 1 .104.104v5.443h.026c0 .062-.068.104-.13.104H6.641a.1.1 0 0 1-.105-.104v-.313a1.99 1.99 0 0 1-.416.313 1.285 1.285 0 0 1-.651.182c-.27 0-.46-.094-.6-.286-.133-.183-.208-.437-.208-.782v-4.557a.1.1 0 0 1 .105-.104zm5.39 1.015a.387.387 0 0 0-.234.053c-.049.022-.082.055-.13.104V16.9c.062.062.1.101.156.13.062.03.14.026.208.026.13 0 .17-.036.183-.052.032-.039.052-.13.052-.312V13.88c0-.156-.023-.263-.079-.338a.254.254 0 0 0-.156-.104zm3.646.027c-.12 0-.212.035-.26.104-.036.049-.078.162-.078.416v.443h.677v-.443c0-.25-.065-.361-.105-.416-.045-.065-.117-.104-.234-.104z"/>
</svg>
