<svg xmlns="http://www.w3.org/2000/svg" width="51" height="56" viewBox="0 0 51 56">
    <defs>
        <linearGradient id="a" x1="50%" x2="50%" y1="0%" y2="100.98%">
            <stop offset="0%" stop-color="#7D8FAF"/>
            <stop offset="100%" stop-color="#55698D"/>
        </linearGradient>
        <linearGradient id="b" x1="50%" x2="50%" y1="0%" y2="100.98%">
            <stop offset="0%" stop-color="#7D8FAF"/>
            <stop offset="100%" stop-color="#55698D"/>
        </linearGradient>
    </defs>
    <g fill="none" fill-rule="evenodd">
        <path fill="#FEFAEA" d="M25 0l25 40.625H0z"/>
        <g fill-rule="nonzero">
            <path fill="url(#a)" d="M29.644 7.018l-5.892-5.893A3.82 3.82 0 0 0 21.032 0H2.308A2.31 2.31 0 0 0 0 2.308V37.692A2.31 2.31 0 0 0 2.308 40h26.154a2.31 2.31 0 0 0 2.307-2.308V9.736a3.82 3.82 0 0 0-1.125-2.718zm-1.502.674h-4.296a.77.77 0 0 1-.77-.769V2.626l5.066 5.066zm.32 30.77H2.308a.77.77 0 0 1-.77-.77v-.911c.242.087.498.142.77.142h26.154c.271 0 .527-.055.769-.141v.91a.77.77 0 0 1-.77.77zm.769-3.847a.77.77 0 0 1-.77.77H2.309a.77.77 0 0 1-.77-.77V2.307a.77.77 0 0 1 .77-.769h18.724c.173 0 .342.024.506.06v5.325a2.31 2.31 0 0 0 2.308 2.308h5.325c.037.164.06.333.06.506v24.878z" transform="translate(20 16)"/>
            <path fill="url(#b)" d="M16.105 12.308c-4.139 0-7.621 2.901-8.363 6.923H5.877c-.38 0-.615.385-.425.692l2.16 3.467c.38.608 1.319.608 1.699 0l2.16-3.467c.19-.307-.046-.692-.425-.692H9.312c.713-3.144 3.499-5.385 6.793-5.385 3.845 0 6.972 3.106 6.972 6.923 0 3.818-3.127 6.923-6.972 6.923a6.944 6.944 0 0 1-4.98-2.077l-1.095 1.08a8.471 8.471 0 0 0 6.075 2.536c4.693 0 8.51-3.796 8.51-8.462 0-4.665-3.817-8.461-8.51-8.461z" transform="translate(20 16)"/>
        </g>
    </g>
</svg>
