<svg xmlns="http://www.w3.org/2000/svg" width="56" height="56" viewBox="0 0 56 56">
    <defs>
        <linearGradient id="a" x1="50%" x2="50%" y1="0%" y2="100.98%">
            <stop offset="0%" stop-color="#7D8FAF"/>
            <stop offset="100%" stop-color="#55698D"/>
        </linearGradient>
        <linearGradient id="b" x1="50%" x2="50%" y1="0%" y2="100.98%">
            <stop offset="0%" stop-color="#7D8FAF"/>
            <stop offset="100%" stop-color="#55698D"/>
        </linearGradient>
        <linearGradient id="c" x1="50%" x2="50%" y1="0%" y2="100.98%">
            <stop offset="0%" stop-color="#7D8FAF"/>
            <stop offset="100%" stop-color="#55698D"/>
        </linearGradient>
        <linearGradient id="d" x1="50%" x2="50%" y1="0%" y2="100.98%">
            <stop offset="0%" stop-color="#7D8FAF"/>
            <stop offset="100%" stop-color="#55698D"/>
        </linearGradient>
        <linearGradient id="e" x1="50%" x2="50%" y1="0%" y2="100.98%">
            <stop offset="0%" stop-color="#7D8FAF"/>
            <stop offset="100%" stop-color="#55698D"/>
        </linearGradient>
        <linearGradient id="f" x1="50%" x2="50%" y1="0%" y2="100.98%">
            <stop offset="0%" stop-color="#7D8FAF"/>
            <stop offset="100%" stop-color="#55698D"/>
        </linearGradient>
    </defs>
    <g fill="none" fill-rule="evenodd">
        <path fill="#FDEDEB" d="M0 0h48v48H0z"/>
        <g fill-rule="nonzero">
            <path fill="url(#a)" d="M16 50.001l-3-1-3 1V41h6z" transform="translate(18 4)"/>
            <path fill="url(#b)" d="M33 3H18v-.999A2.002 2.002 0 0 0 16 0h-6C8.897 0 8 .897 8 2.001V3H5C2.243 3 0 5.243 0 8.001v36.001A5.004 5.004 0 0 0 5 49h3v.994c0 .764.425 1.451 1.108 1.793a1.997 1.997 0 0 0 2.098-.19L13 50.252l1.793 1.345a2 2 0 0 0 2.099.19A1.995 1.995 0 0 0 18 49.994V49h15c2.757 0 5-2.241 5-4.998V8.001A5.006 5.006 0 0 0 33 3zM10 2h6v1h-6V2zM8 43H6v-2h2v2zm6.199 5.652a2.01 2.01 0 0 0-2.398 0L10 49.994V41h5.999l-.006 8.997-1.794-1.345zM18 41h14v2H18v-2zm18 3.002A3.002 3.002 0 0 1 33 47H18v-2h14a2 2 0 0 0 2-1.998v-2A2.003 2.003 0 0 0 32 39H6c-1.103 0-2 .898-2 2.002v2A2 2 0 0 0 6 45h2v2H5c-1.654 0-3-1.345-3-2.998V8.001A3.004 3.004 0 0 1 5 5h28c1.654 0 3 1.346 3 3.001v36.001z" transform="translate(18 4)"/>
            <path fill="url(#c)" d="M13 15h-2.031A2.973 2.973 0 0 0 8 17.97V25h2v-2h4v2h2v-7.03c0-1.638-1.346-2.97-3-2.97zm-3 6v-3.03a.97.97 0 0 1 .969-.97H13c.542 0 1 .444 1 .97V21h-4z" transform="translate(18 4)"/>
            <path fill="url(#d)" d="M18 15h12v2H18zM18 19h12v2H18zM18 23h12v2H18z" transform="translate(18 4)"/>
            <path fill="url(#e)" d="M8 27h8v2H8z" transform="translate(18 4)"/>
            <path fill="url(#d)" d="M18 27h12v2H18z" transform="translate(18 4)"/>
            <path fill="url(#f)" d="M10 2h6v1h-6z" transform="translate(18 4)"/>
        </g>
    </g>
</svg>
