<svg xmlns="http://www.w3.org/2000/svg" width="56" height="56" viewBox="0 0 56 56">
    <defs>
        <linearGradient id="a" x1="50%" x2="50%" y1="0%" y2="100.98%">
            <stop offset="0%" stop-color="#7D8FAF"/>
            <stop offset="100%" stop-color="#55698D"/>
        </linearGradient>
        <linearGradient id="b" x1="50%" x2="50%" y1="0%" y2="100.98%">
            <stop offset="0%" stop-color="#7D8FAF"/>
            <stop offset="100%" stop-color="#55698D"/>
        </linearGradient>
    </defs>
    <g fill="none" fill-rule="evenodd">
        <path fill="#FEFAEA" d="M31 0h17v17c0 17.12-13.88 31-31 31H0V31C0 13.88 13.88 0 31 0z"/>
        <g fill-rule="nonzero">
            <path fill="url(#a)" d="M34.483 11.034V6.207a.69.69 0 0 0-.69-.69h-4.827l5.517 5.517z" transform="translate(16 25)"/>
            <path fill="url(#b)" d="M36.552 0H3.448A3.452 3.452 0 0 0 0 3.448v22.07a3.452 3.452 0 0 0 3.448 3.448h9.093a2.065 2.065 0 0 0 1.942 1.379h11.034c.898 0 1.657-.578 1.942-1.38h9.093A3.452 3.452 0 0 0 40 25.518V3.448A3.452 3.452 0 0 0 36.552 0zM9.655 26.897c0-.381.31-.69.69-.69h2.069v1.38h-2.07a.69.69 0 0 1-.689-.69zm20-2.07H20.69v-.688c0-1.88.831-3.607 2.278-4.793a4.82 4.82 0 0 0 3.929 2.033c1.62 0 3.052-.805 3.929-2.033a6.147 6.147 0 0 1 2.277 4.793v.689h-3.448zm-6.207-8.275v-2.07a3.452 3.452 0 0 1 3.449-3.448 3.452 3.452 0 0 1 3.448 3.449v2.069A3.452 3.452 0 0 1 26.897 20a3.452 3.452 0 0 1-3.449-3.448zm8.021 1.536c.163-.484.255-.999.255-1.536v-2.07a4.834 4.834 0 0 0-4.827-4.827 4.834 4.834 0 0 0-4.828 4.828v2.069c0 .537.092 1.052.254 1.536a7.556 7.556 0 0 0-2.323 2.9 7.551 7.551 0 0 0-2.324-2.9c.163-.484.255-.999.255-1.536v-2.07a4.834 4.834 0 0 0-4.828-4.827 4.834 4.834 0 0 0-4.827 4.828v2.069c0 .537.092 1.052.254 1.536a7.53 7.53 0 0 0-3.013 6.051v.689h-1.38V4.138l31.725-.001v20.69h-1.38v-.688c0-2.4-1.099-4.603-3.013-6.051zm-14.917-3.605v2.069A3.452 3.452 0 0 1 13.103 20a3.452 3.452 0 0 1-3.448-3.448v-2.07a3.452 3.452 0 0 1 3.448-3.448 3.452 3.452 0 0 1 3.449 3.449zm-9.655 9.656c0-1.88.831-3.607 2.277-4.793a4.82 4.82 0 0 0 3.93 2.033c1.62 0 3.052-.805 3.928-2.033a6.147 6.147 0 0 1 2.278 4.793v.689H6.897v-.689zm19.31 4.137a.69.69 0 0 1-.69.69H14.483a.69.69 0 0 1-.69-.69v-2.07h12.414v2.07zm1.38-.69v-1.38h2.068a.69.69 0 0 1 0 1.38h-2.069zm11.034-2.069c0 1.14-.929 2.07-2.07 2.07h-4.954c.077-.217.127-.447.127-.69 0-.244-.05-.474-.127-.69h4.265c.76 0 1.38-.619 1.38-1.38V4.138c0-.76-.62-1.378-1.38-1.378H4.138c-.76 0-1.38.618-1.38 1.379v20.69c0 .76.62 1.379 1.38 1.379h4.265a2.043 2.043 0 0 0-.127.69c0 .243.05.473.127.69H3.448a2.071 2.071 0 0 1-2.069-2.07V3.448c0-1.14.929-2.069 2.07-2.069h33.103c1.14 0 2.069.929 2.069 2.07v22.068z" transform="translate(16 25)"/>
        </g>
    </g>
</svg>
