<svg xmlns="http://www.w3.org/2000/svg" width="56" height="56" viewBox="0 0 56 56">
    <defs>
        <linearGradient id="a" x1="50%" x2="50%" y1="0%" y2="100.98%">
            <stop offset="0%" stop-color="#7D8FAF"/>
            <stop offset="100%" stop-color="#55698D"/>
        </linearGradient>
        <linearGradient id="b" x1="50%" x2="50%" y1="0%" y2="100.98%">
            <stop offset="0%" stop-color="#7D8FAF"/>
            <stop offset="100%" stop-color="#55698D"/>
        </linearGradient>
        <linearGradient id="c" x1="50%" x2="50%" y1="0%" y2="100.98%">
            <stop offset="0%" stop-color="#7D8FAF"/>
            <stop offset="100%" stop-color="#55698D"/>
        </linearGradient>
    </defs>
    <g fill="none" fill-rule="evenodd">
        <path fill="#ECF6EE" d="M0 0c26.51 0 48 21.49 48 48H0V0z"/>
        <g fill-rule="nonzero" transform="translate(8 19)">
            <path fill="url(#a)" d="M47.254 3.187a1.652 1.652 0 0 0-1.566-.14l-3.481 1.491V2.483A2.486 2.486 0 0 0 39.724 0H26.483A2.486 2.486 0 0 0 24 2.483v4.965H5.793a3.314 3.314 0 0 0-3.31 3.31v20.69h-.828c-.913 0-1.655.743-1.655 1.655v.828a2.486 2.486 0 0 0 2.483 2.483h36.414a2.486 2.486 0 0 0 2.482-2.483v-.828c0-.912-.742-1.655-1.655-1.655h-.827V14.897h.827a2.486 2.486 0 0 0 2.483-2.483v-2.056l3.48 1.491a1.655 1.655 0 0 0 1.567-.14c.467-.307.746-.825.746-1.383V4.572c0-.56-.279-1.077-.746-1.385zm-20.771 11.71h7.448v13.24H7.448V12.415H24a2.486 2.486 0 0 0 2.483 2.483zM39.724 33.93c0 .457-.37.828-.827.828H2.483a.828.828 0 0 1-.828-.828v-.828h13.727l.343.344a1.64 1.64 0 0 0 1.168.484h7.594a1.64 1.64 0 0 0 1.167-.484l.344-.344h13.726v.828zm-2.483-2.483H25.313l-.826.828h-7.592l-.828-.828H4.137v-20.69c0-.912.743-1.655 1.656-1.655H24v1.656H7.448c-.913 0-1.655.742-1.655 1.655v17.38h29.793V14.896h1.655v16.551zm3.31-19.034c0 .457-.37.827-.827.827H26.483a.828.828 0 0 1-.828-.827V2.483c0-.457.37-.828.828-.828h13.241c.457 0 .828.37.828.828V12.414zm5.792-2.085l-4.136-1.77v-2.22l4.138-1.768-.002 5.758z"/>
            <path fill="url(#b)" d="M33.103 3.31a4.143 4.143 0 0 0-4.137 4.138 4.143 4.143 0 0 0 4.137 4.138 4.143 4.143 0 0 0 4.138-4.138 4.143 4.143 0 0 0-4.138-4.138zm0 6.621a2.486 2.486 0 0 1-2.482-2.483 2.486 2.486 0 0 1 2.482-2.482 2.486 2.486 0 0 1 2.483 2.482 2.486 2.486 0 0 1-2.483 2.483z"/>
            <circle cx="24.828" cy="19.034" r="1.655" fill="url(#b)"/>
            <circle cx="16.552" cy="19.034" r="1.655" fill="url(#b)"/>
            <path fill="url(#c)" d="M23.172 22.345a2.483 2.483 0 1 1-4.965 0v-.828h4.965v.828z"/>
        </g>
    </g>
</svg>
