<svg xmlns="http://www.w3.org/2000/svg" width="54" height="55" viewBox="0 0 54 55">
    <defs>
        <linearGradient id="a" x1="50%" x2="50%" y1="0%" y2="100.98%">
            <stop offset="0%" stop-color="#7D8FAF"/>
            <stop offset="100%" stop-color="#55698D"/>
        </linearGradient>
        <linearGradient id="b" x1="50%" x2="50%" y1="0%" y2="100.98%">
            <stop offset="0%" stop-color="#7D8FAF"/>
            <stop offset="100%" stop-color="#55698D"/>
        </linearGradient>
        <linearGradient id="c" x1="50%" x2="50%" y1="0%" y2="100.98%">
            <stop offset="0%" stop-color="#7D8FAF"/>
            <stop offset="100%" stop-color="#55698D"/>
        </linearGradient>
        <linearGradient id="d" x1="50%" x2="50%" y1="0%" y2="100.98%">
            <stop offset="0%" stop-color="#7D8FAF"/>
            <stop offset="100%" stop-color="#55698D"/>
        </linearGradient>
        <linearGradient id="e" x1="50%" x2="50%" y1="0%" y2="100.98%">
            <stop offset="0%" stop-color="#7D8FAF"/>
            <stop offset="100%" stop-color="#55698D"/>
        </linearGradient>
        <linearGradient id="f" x1="50%" x2="50%" y1="0%" y2="100.98%">
            <stop offset="0%" stop-color="#7D8FAF"/>
            <stop offset="100%" stop-color="#55698D"/>
        </linearGradient>
    </defs>
    <g fill="none" fill-rule="evenodd">
        <path fill="#FDEDEB" d="M25.439 1.135l17.423 12.659a5 5 0 0 1 1.816 5.59l-6.655 20.482a5 5 0 0 1-4.755 3.455H11.732a5 5 0 0 1-4.755-3.455L.322 19.384a5 5 0 0 1 1.816-5.59L19.561 1.135a5 5 0 0 1 5.878 0z"/>
        <g fill-rule="nonzero" transform="translate(14 20)">
            <path fill="url(#a)" d="M25.574 23.272a1.643 1.643 0 0 1-1.935 1.62c-.452-.079 1.115-3.095 1.41-2.82.321.295.525.728.525 1.2z"/>
            <circle cx="30.495" cy="23.282" r="1.643" fill="url(#b)"/>
            <path fill="url(#c)" d="M29.508 26.858c0 1.463-1.027 2.65-2.295 2.65-1.267 0-2.295-1.187-2.295-2.65h4.59z"/>
            <path fill="url(#d)" d="M11.788 22.295c0 1.808 1.33 3.279 2.966 3.279 1.636 0 2.967-1.471 2.967-3.279h-5.933z"/>
            <path fill="url(#e)" d="M36.721 20.538v-1.272c0-5.2-4.262-9.43-9.508-9.43a9.67 9.67 0 0 0-1.967.203 10.75 10.75 0 0 0-4.925-6.544c-.026-1.206-1.036-2.184-2.288-2.184h-1.207A2.284 2.284 0 0 0 14.754 0c-.918 0-1.711.538-2.072 1.311h-1.207c-1.252 0-2.262.978-2.288 2.184C5.94 5.423 3.934 8.892 3.934 12.65v1.128c-.045 0-.091-.007-.137-.007C1.705 13.77 0 15.534 0 17.705c0 2.17 1.705 3.934 3.797 3.934.177 0 .347-.013.524-.039 1.24 4.55 5.443 7.908 10.433 7.908 1.377 0 2.695-.256 3.908-.721a9.519 9.519 0 0 0 8.551 5.311 9.52 9.52 0 0 0 9.089-6.655c1.744-.368 3.049-1.797 3.049-3.509 0-1.567-1.102-2.898-2.63-3.396zm-32.924-.21c-1.37 0-2.486-1.174-2.486-2.623 0-1.45 1.115-2.623 2.486-2.623.046 0 .092.007.137.007v3.737c0 .505.046.997.118 1.482a1.68 1.68 0 0 1-.255.02zM17.049 2.623h.984c.544 0 .983.413.983.918v.702c0 .491-.347.918-.806.99a1.032 1.032 0 0 1-.84-.23.867.867 0 0 1-.32-.675V2.623zm-3.279-.36c0-.525.44-.952.984-.952s.984.427.984.951v4.02c0 .525-.44.957-.984.957a.973.973 0 0 1-.984-.957v-4.02zM10.492 3.54c0-.505.44-.918.983-.918h.984v1.705a.867.867 0 0 1-.321.675 1.032 1.032 0 0 1-.84.23c-.459-.072-.806-.499-.806-.99V3.54zM5.246 18.826V12.65c0-3.075 1.534-5.928 4.059-7.672.269.8.944 1.416 1.797 1.554.124.013.249.026.373.026.341 0 .682-.085.99-.23a2.282 2.282 0 0 0 2.29 2.224 2.282 2.282 0 0 0 2.288-2.223c.308.144.649.23.99.23.124 0 .249-.014.374-.027.852-.138 1.527-.754 1.796-1.554 2.525 1.744 4.06 4.61 4.06 7.672v6.177c0 .984-.152 1.928-.44 2.813a8.98 8.98 0 0 1-1.266 2.531 9.53 9.53 0 0 1-7.803 4.027c-5.246 0-9.508-4.204-9.508-9.37zM35.41 24.67c0 4.479-3.679 8.118-8.197 8.118a8.206 8.206 0 0 1-7.357-4.544 10.946 10.946 0 0 0 3.783-3.351 10.816 10.816 0 0 0 1.41-2.82l.138-.472c.177.026.347.04.524.04 2.092 0 3.797-1.765 3.797-3.935s-1.705-3.935-3.797-3.935c-.045 0-.091.007-.137.007v-1.128c0-.446-.026-.885-.085-1.318a7.853 7.853 0 0 1 1.724-.183c4.518 0 8.197 3.639 8.197 8.118v5.403zm-9.954-4.36c.072-.486.118-.978.118-1.483V15.09c.046 0 .092-.007.137-.007 1.371 0 2.486 1.174 2.486 2.623 0 1.45-1.115 2.623-2.486 2.623a1.68 1.68 0 0 1-.255-.02zm11.167 5.652a9.36 9.36 0 0 0 .098-1.292v-2.715c.787.4 1.318 1.135 1.318 1.98 0 .886-.577 1.64-1.416 2.027z"/>
            <path fill="url(#f)" d="M18.689 14.473a2.947 2.947 0 0 0-2.76 1.92h-2.32a2.961 2.961 0 0 0-2.774-1.92c-1.636 0-2.966 1.313-2.966 2.927s1.33 2.928 2.966 2.928a2.946 2.946 0 0 0 2.935-2.623h1.999a2.936 2.936 0 0 0 2.92 2.623c1.626 0 2.95-1.314 2.95-2.927 0-1.614-1.324-2.928-2.95-2.928zm-7.854 4.543c-.912 0-1.655-.724-1.655-1.615s.743-1.616 1.655-1.616c.913 0 1.655.725 1.655 1.616 0 .89-.742 1.615-1.655 1.615zm7.854 0c-.904 0-1.64-.724-1.64-1.615s.736-1.616 1.64-1.616c.903 0 1.639.725 1.639 1.616 0 .89-.736 1.615-1.64 1.615z"/>
        </g>
    </g>
</svg>
