<svg xmlns="http://www.w3.org/2000/svg" width="16" height="16" viewBox="0 0 16 16">
    <path fill="#F7F8F8" fill-rule="evenodd" d="M8 0a4.923 4.923 0 0 0-4.923 4.923c0 3.692 4.308 4.923 4.308 7.384a.616.616 0 0 0 1.23 0c0-2.461 4.308-3.692 4.308-7.384A4.923 4.923 0 0 0 8 0zm0 3.692a1.23 1.23 0 1 1 0 2.46 1.23 1.23 0 0 1 0-2.46zM2.462 9.23a.617.617 0 0 0-.577.4L.039 14.551a.616.616 0 0 0 .577.832h14.768a.616.616 0 0 0 .577-.832l-1.846-4.923a.617.617 0 0 0-.577-.399h-1.216c-.337.377-.685.721-1.013 1.045-.065.062-.127.124-.19.186h1.992l1.385 3.692H1.504l1.384-3.692H4.88l-.188-.186A23.017 23.017 0 0 1 3.678 9.23H2.462z" opacity=".24"/>
</svg>
