<svg xmlns="http://www.w3.org/2000/svg" width="16" height="16" viewBox="0 0 16 16">
    <path fill="#F7F8F8" fill-rule="evenodd" d="M8.147 0C3.684 0 .05 3.616 0 8.075v.016C.049 12.459 3.61 16 7.981 16c2.685 0 4.956-.805 6.812-3.033a.696.696 0 1 0-1.069-.89c-1.621 1.945-3.31 2.532-5.743 2.532a6.588 6.588 0 0 1-6.589-6.526C1.437 4.372 4.436 1.39 8.147 1.39c1.509 0 2.968.513 4.028 1.413 1.06.9 1.736 2.163 1.736 3.8v.135c0 1.178-.554 2.296-1.316 3.113-.761.817-1.737 1.278-2.313 1.278-.128 0-.122-.015-.133-.027-.01-.011-.064-.087-.064-.32v-.036s-.048-.815.42-1.95v-.004l1.616-4.011a.696.696 0 1 0-1.29-.52l-.09.223a2.554 2.554 0 0 0-.426-.408c-.59-.443-1.318-.599-2.07-.599-1.006 0-2.108.572-3.07 1.563A6.107 6.107 0 0 0 3.44 9.325a3.202 3.202 0 1 0 5.424 2.3c.062.144.138.282.245.402.3.337.751.495 1.173.495 1.183 0 2.37-.69 3.33-1.722.962-1.03 1.69-2.456 1.69-4.06v-.135c0-2.033-.889-3.724-2.227-4.861C11.738.607 9.968 0 8.147 0zm.099 4.87c.56 0 .959.114 1.234.32.251.188.447.485.568 1.016l-.829 2.057-.468 1.163a.694.694 0 0 0-.002.003c-.245.392-.485.831-.81 1.157-.324.325-.679.544-1.308.544-1.002 0-1.8-.799-1.8-1.805A4.67 4.67 0 0 1 6.173 6.01C6.92 5.24 7.874 4.87 8.246 4.87z" opacity=".24"/>
</svg>
