<svg xmlns="http://www.w3.org/2000/svg" width="30" height="28" viewBox="0 0 30 28">
    <defs>
        <filter id="a" width="102.2%" height="148.6%" x="-1.1%" y="-24.3%" filterUnits="objectBoundingBox">
            <feOffset dx="2" dy="2" in="SourceAlpha" result="shadowOffsetOuter1"/>
            <feGaussianBlur in="shadowOffsetOuter1" result="shadowBlurOuter1" stdDeviation="3"/>
            <feColorMatrix in="shadowBlurOuter1" result="shadowMatrixOuter1" values="0 0 0 0 0.722216048 0 0 0 0 0.752954049 0 0 0 0 0.782127491 0 0 0 0.5 0"/>
            <feMerge>
                <feMergeNode in="shadowMatrixOuter1"/>
                <feMergeNode in="SourceGraphic"/>
            </feMerge>
        </filter>
    </defs>
    <path fill="#9CA2B0" fill-rule="evenodd" d="M6.29 18c7.547 0 11.675-6.156 11.675-11.495 0-.175 0-.35-.012-.522A8.265 8.265 0 0 0 20 3.89a8.273 8.273 0 0 1-2.356.637 4.07 4.07 0 0 0 1.804-2.235 8.303 8.303 0 0 1-2.606.98 4.153 4.153 0 0 0-5.806-.175 4.006 4.006 0 0 0-1.187 3.86 11.717 11.717 0 0 1-8.457-4.22A4.005 4.005 0 0 0 2.663 8.13 4.122 4.122 0 0 1 .8 7.625v.051c.001 1.923 1.378 3.579 3.292 3.96a4.144 4.144 0 0 1-1.852.069c.537 1.646 2.078 2.773 3.833 2.806A8.315 8.315 0 0 1 0 16.185a11.754 11.754 0 0 0 6.29 1.812" filter="url(#a)" opacity=".5" transform="translate(3 2)"/>
</svg>
