<svg xmlns="http://www.w3.org/2000/svg" width="32" height="32" viewBox="0 0 32 32">
    <defs>
        <filter id="a" width="102.2%" height="148.6%" x="-1.1%" y="-24.3%" filterUnits="objectBoundingBox">
            <feOffset dx="2" dy="2" in="SourceAlpha" result="shadowOffsetOuter1"/>
            <feGaussianBlur in="shadowOffsetOuter1" result="shadowBlurOuter1" stdDeviation="3"/>
            <feColorMatrix in="shadowBlurOuter1" result="shadowMatrixOuter1" values="0 0 0 0 0.722216048 0 0 0 0 0.752954049 0 0 0 0 0.782127491 0 0 0 0.5 0"/>
            <feMerge>
                <feMergeNode in="shadowMatrixOuter1"/>
                <feMergeNode in="SourceGraphic"/>
            </feMerge>
        </filter>
    </defs>
    <path fill="#9CA2B0" fill-rule="evenodd" d="M81.821 14.121c-.241.682-1.199 1.247-1.963 1.412-.523.11-1.205.199-3.503-.754-2.581-1.069-6.165-4.878-6.165-7.413 0-1.29.744-2.793 2.045-2.793.626 0 .764.012.97.507.241.582.829 2.016.899 2.163.289.603-.294.956-.717 1.482-.135.158-.288.329-.117.623.17.288.758 1.246 1.622 2.015 1.116.995 2.021 1.312 2.345 1.447.241.1.529.077.705-.111.223-.241.5-.641.782-1.036.199-.282.452-.317.717-.217.179.062 2.454 1.119 2.55 1.288.071.123.071.705-.17 1.387M76.002 0h-.005C70.484 0 66 4.485 66 10c0 2.187.705 4.215 1.904 5.86l-1.246 3.717 3.843-1.228A9.923 9.923 0 0 0 76.002 20C81.515 20 86 15.515 86 10S81.515 0 76.002 0" filter="url(#a)" opacity=".5" transform="translate(-62 4)"/>
</svg>
