<svg xmlns="http://www.w3.org/2000/svg" width="211" height="99" viewBox="0 0 211 99">
    <path fill="#000" fill-opacity=".2" fill-rule="evenodd" d="M1.5 96a1.5 1.5 0 1 1 0 3 1.5 1.5 0 0 1 0-3zm16 0a1.5 1.5 0 1 1 0 3 1.5 1.5 0 0 1 0-3zm16 0a1.5 1.5 0 1 1 0 3 1.5 1.5 0 0 1 0-3zm16 0a1.5 1.5 0 1 1 0 3 1.5 1.5 0 0 1 0-3zm16 0a1.5 1.5 0 1 1 0 3 1.5 1.5 0 0 1 0-3zm16 0a1.5 1.5 0 1 1 0 3 1.5 1.5 0 0 1 0-3zm16 0a1.5 1.5 0 1 1 0 3 1.5 1.5 0 0 1 0-3zm16 0a1.5 1.5 0 1 1 0 3 1.5 1.5 0 0 1 0-3zm16 0a1.5 1.5 0 1 1 0 3 1.5 1.5 0 0 1 0-3zm16 0a1.5 1.5 0 1 1 0 3 1.5 1.5 0 0 1 0-3zm16 0a1.5 1.5 0 1 1 0 3 1.5 1.5 0 0 1 0-3zm16 0a1.5 1.5 0 1 1 0 3 1.5 1.5 0 0 1 0-3zm16 0a1.5 1.5 0 1 1 0 3 1.5 1.5 0 0 1 0-3zm16 0a1.5 1.5 0 1 1 0 3 1.5 1.5 0 0 1 0-3zM1.5 80a1.5 1.5 0 1 1 0 3 1.5 1.5 0 0 1 0-3zm16 0a1.5 1.5 0 1 1 0 3 1.5 1.5 0 0 1 0-3zm16 0a1.5 1.5 0 1 1 0 3 1.5 1.5 0 0 1 0-3zm16 0a1.5 1.5 0 1 1 0 3 1.5 1.5 0 0 1 0-3zm16 0a1.5 1.5 0 1 1 0 3 1.5 1.5 0 0 1 0-3zm16 0a1.5 1.5 0 1 1 0 3 1.5 1.5 0 0 1 0-3zm16 0a1.5 1.5 0 1 1 0 3 1.5 1.5 0 0 1 0-3zm16 0a1.5 1.5 0 1 1 0 3 1.5 1.5 0 0 1 0-3zm16 0a1.5 1.5 0 1 1 0 3 1.5 1.5 0 0 1 0-3zm16 0a1.5 1.5 0 1 1 0 3 1.5 1.5 0 0 1 0-3zm16 0a1.5 1.5 0 1 1 0 3 1.5 1.5 0 0 1 0-3zm16 0a1.5 1.5 0 1 1 0 3 1.5 1.5 0 0 1 0-3zm16 0a1.5 1.5 0 1 1 0 3 1.5 1.5 0 0 1 0-3zm16 0a1.5 1.5 0 1 1 0 3 1.5 1.5 0 0 1 0-3zM1.5 64a1.5 1.5 0 1 1 0 3 1.5 1.5 0 0 1 0-3zm16 0a1.5 1.5 0 1 1 0 3 1.5 1.5 0 0 1 0-3zm16 0a1.5 1.5 0 1 1 0 3 1.5 1.5 0 0 1 0-3zm16 0a1.5 1.5 0 1 1 0 3 1.5 1.5 0 0 1 0-3zm16 0a1.5 1.5 0 1 1 0 3 1.5 1.5 0 0 1 0-3zm16 0a1.5 1.5 0 1 1 0 3 1.5 1.5 0 0 1 0-3zm16 0a1.5 1.5 0 1 1 0 3 1.5 1.5 0 0 1 0-3zm16 0a1.5 1.5 0 1 1 0 3 1.5 1.5 0 0 1 0-3zm16 0a1.5 1.5 0 1 1 0 3 1.5 1.5 0 0 1 0-3zm16 0a1.5 1.5 0 1 1 0 3 1.5 1.5 0 0 1 0-3zm16 0a1.5 1.5 0 1 1 0 3 1.5 1.5 0 0 1 0-3zm16 0a1.5 1.5 0 1 1 0 3 1.5 1.5 0 0 1 0-3zm16 0a1.5 1.5 0 1 1 0 3 1.5 1.5 0 0 1 0-3zm16 0a1.5 1.5 0 1 1 0 3 1.5 1.5 0 0 1 0-3zm-16-16a1.5 1.5 0 1 1 0 3 1.5 1.5 0 0 1 0-3zm-192 0a1.5 1.5 0 1 1 0 3 1.5 1.5 0 0 1 0-3zm32 0a1.5 1.5 0 1 1 0 3 1.5 1.5 0 0 1 0-3zm32 0a1.5 1.5 0 1 1 0 3 1.5 1.5 0 0 1 0-3zm32 0a1.5 1.5 0 1 1 0 3 1.5 1.5 0 0 1 0-3zm32 0a1.5 1.5 0 1 1 0 3 1.5 1.5 0 0 1 0-3zm32 0a1.5 1.5 0 1 1 0 3 1.5 1.5 0 0 1 0-3zm16 0a1.5 1.5 0 1 1 0 3 1.5 1.5 0 0 1 0-3zm-96 0a1.5 1.5 0 1 1 0 3 1.5 1.5 0 0 1 0-3zm128 0a1.5 1.5 0 1 1 0 3 1.5 1.5 0 0 1 0-3zm-96 0a1.5 1.5 0 1 1 0 3 1.5 1.5 0 0 1 0-3zm-64 0a1.5 1.5 0 1 1 0 3 1.5 1.5 0 0 1 0-3zm96 0a1.5 1.5 0 1 1 0 3 1.5 1.5 0 0 1 0-3zm-128 0a1.5 1.5 0 1 1 0 3 1.5 1.5 0 0 1 0-3zm-16-16a1.5 1.5 0 1 1 0 3 1.5 1.5 0 0 1 0-3zm80 0a1.5 1.5 0 1 1 0 3 1.5 1.5 0 0 1 0-3zm128 0a1.5 1.5 0 1 1 0 3 1.5 1.5 0 0 1 0-3zm-144 0a1.5 1.5 0 1 1 0 3 1.5 1.5 0 0 1 0-3zm48 0a1.5 1.5 0 1 1 0 3 1.5 1.5 0 0 1 0-3zm16 0a1.5 1.5 0 1 1 0 3 1.5 1.5 0 0 1 0-3zm-80 0a1.5 1.5 0 1 1 0 3 1.5 1.5 0 0 1 0-3zm144 0a1.5 1.5 0 1 1 0 3 1.5 1.5 0 0 1 0-3zm-48 0a1.5 1.5 0 1 1 0 3 1.5 1.5 0 0 1 0-3zm-48 0a1.5 1.5 0 1 1 0 3 1.5 1.5 0 0 1 0-3zm-80 0a1.5 1.5 0 1 1 0 3 1.5 1.5 0 0 1 0-3zm16 0a1.5 1.5 0 1 1 0 3 1.5 1.5 0 0 1 0-3zm144 0a1.5 1.5 0 1 1 0 3 1.5 1.5 0 0 1 0-3zm-16 0a1.5 1.5 0 1 1 0 3 1.5 1.5 0 0 1 0-3zm-112-16a1.5 1.5 0 1 1 0 3 1.5 1.5 0 0 1 0-3zm48 0a1.5 1.5 0 1 1 0 3 1.5 1.5 0 0 1 0-3zm96 0a1.5 1.5 0 1 1 0 3 1.5 1.5 0 0 1 0-3zm-192 0a1.5 1.5 0 1 1 0 3 1.5 1.5 0 0 1 0-3zm80 0a1.5 1.5 0 1 1 0 3 1.5 1.5 0 0 1 0-3zm128 0a1.5 1.5 0 1 1 0 3 1.5 1.5 0 0 1 0-3zm-144 0a1.5 1.5 0 1 1 0 3 1.5 1.5 0 0 1 0-3zm48 0a1.5 1.5 0 1 1 0 3 1.5 1.5 0 0 1 0-3zm16 0a1.5 1.5 0 1 1 0 3 1.5 1.5 0 0 1 0-3zm-112 0a1.5 1.5 0 1 1 0 3 1.5 1.5 0 0 1 0-3zm16 0a1.5 1.5 0 1 1 0 3 1.5 1.5 0 0 1 0-3zm144 0a1.5 1.5 0 1 1 0 3 1.5 1.5 0 0 1 0-3zm-16 0a1.5 1.5 0 1 1 0 3 1.5 1.5 0 0 1 0-3zm-16 0a1.5 1.5 0 1 1 0 3 1.5 1.5 0 0 1 0-3zM1.5 0a1.5 1.5 0 1 1 0 3 1.5 1.5 0 0 1 0-3zm16 0a1.5 1.5 0 1 1 0 3 1.5 1.5 0 0 1 0-3zm16 0a1.5 1.5 0 1 1 0 3 1.5 1.5 0 0 1 0-3zm16 0a1.5 1.5 0 1 1 0 3 1.5 1.5 0 0 1 0-3zm16 0a1.5 1.5 0 1 1 0 3 1.5 1.5 0 0 1 0-3zm16 0a1.5 1.5 0 1 1 0 3 1.5 1.5 0 0 1 0-3zm16 0a1.5 1.5 0 1 1 0 3 1.5 1.5 0 0 1 0-3zm16 0a1.5 1.5 0 1 1 0 3 1.5 1.5 0 0 1 0-3zm16 0a1.5 1.5 0 1 1 0 3 1.5 1.5 0 0 1 0-3zm16 0a1.5 1.5 0 1 1 0 3 1.5 1.5 0 0 1 0-3zm16 0a1.5 1.5 0 1 1 0 3 1.5 1.5 0 0 1 0-3zm16 0a1.5 1.5 0 1 1 0 3 1.5 1.5 0 0 1 0-3zm16 0a1.5 1.5 0 1 1 0 3 1.5 1.5 0 0 1 0-3zm16 0a1.5 1.5 0 1 1 0 3 1.5 1.5 0 0 1 0-3z"/>
</svg>
