<svg xmlns="http://www.w3.org/2000/svg" width="230" height="277" viewBox="0 0 230 277">
    <defs>
        <linearGradient id="a" x1="0%" y1="50%" y2="50%">
            <stop offset="0%" stop-color="#E8F1FE"/>
            <stop offset="100%" stop-color="#C1D7F8"/>
        </linearGradient>
        <linearGradient id="b" x1="0%" y1="50%" y2="50%">
            <stop offset="0%" stop-color="#A1C3FC"/>
            <stop offset="100%" stop-color="#78A9EF"/>
        </linearGradient>
        <linearGradient id="c" x1="-297.441%" x2="1514.362%" y1="956.652%" y2="956.652%">
            <stop offset="0%" stop-color="#E8F1FE"/>
            <stop offset="100%" stop-color="#C1D7F8"/>
        </linearGradient>
        <linearGradient id="d" x1="392.928%" x2="947.162%" y1="244.073%" y2="244.073%">
            <stop offset="0%" stop-color="#A1C3FC"/>
            <stop offset="100%" stop-color="#78A9EF"/>
        </linearGradient>
        <linearGradient id="e" x1="0%" y1="50%" y2="50%">
            <stop offset="0%" stop-color="#23286B"/>
            <stop offset="100%" stop-color="#151A4F"/>
        </linearGradient>
        <linearGradient id="f" x1="9.361%" x2="81.603%" y1="49.999%" y2="49.999%">
            <stop offset="0%" stop-color="#FFBEB6"/>
            <stop offset="100%" stop-color="#F2A19C"/>
        </linearGradient>
        <linearGradient id="g" x1="53.434%" x2="35.812%" y1="53.537%" y2="35.249%">
            <stop offset="0%" stop-color="#428DFC"/>
            <stop offset="100%" stop-color="#1D72D8"/>
        </linearGradient>
    </defs>
    <g fill="none" fill-rule="nonzero">
        <g transform="rotate(-32.307 221.44 129.956)">
            <ellipse cx="60.668" cy="68.626" fill="url(#a)" rx="38.638" ry="42.332"/>
            <g fill="#87B4EA" opacity=".69">
                <path d="M200.714 30.432l-4.872-5.204 4.872-5.245.8.86-4.035 4.385 4.035 4.344z"/>
                <path d="M197.098 30.432l-4.834-5.204 4.834-5.245.837.86-4.073 4.385 4.073 4.344z"/>
            </g>
            <g fill="#1D72D8" opacity=".69">
                <path d="M1.056 75.06l-.8-.902 4.035-4.344-4.035-4.385.8-.86 4.834 5.245z"/>
                <path d="M4.672 75.06l-.837-.902 4.073-4.344-4.073-4.385.837-.86 4.835 5.245z"/>
            </g>
            <g fill="#78A9EF" opacity=".45">
                <path d="M208.366 143.414l3.692 2.049c.381.123.762.205 1.142.286l-5.748-3.196c.305.328.61.615.914.86zM206.386 141.324l8.375 4.63h.609l-9.326-5.163c.114.164.228.328.342.533zM205.587 139.849l10.887 6.024c.152-.041.305-.041.495-.082l-11.534-6.393c.038.164.076.287.152.45zM205.32 138.66l12.524 6.925c.153-.04.267-.081.42-.123l-12.943-7.171a.608.608 0 0 0 0 .369zM205.359 137.677l13.666 7.54c.114-.041.228-.082.342-.164l-13.932-7.704c-.076.082-.076.205-.076.328zM205.549 136.734l14.465 8.032c.115-.04.19-.123.305-.164l-14.694-8.155a.8.8 0 0 0-.076.287zM205.815 135.873l15.075 8.36c.076-.04.19-.123.266-.205l-15.265-8.441c0 .122-.038.205-.076.286zM206.158 135.054l15.531 8.605c.076-.081.19-.123.266-.204l-15.645-8.688c-.038.082-.076.205-.152.287zM206.767 134.234l-.076.082 15.76 8.729c.075-.082.152-.123.228-.205l-15.722-8.688a.282.282 0 0 0-.19.082zM208.175 133.988h-.19l15.112 8.36c.076-.082.115-.164.19-.246l-14.73-8.155c-.153.041-.267.041-.382.041zM209.47 133.825l14.16 7.827a.867.867 0 0 0 .153-.246l-13.97-7.704c-.077.04-.191.081-.343.123zM210.536 133.374l13.59 7.54c.037-.082.114-.164.152-.246l-13.438-7.418c-.076 0-.19.083-.304.124zM211.411 132.841l13.17 7.294a2.12 2.12 0 0 0 .115-.286l-13.019-7.213c-.114.041-.19.123-.266.205zM212.096 132.185l12.79 7.09c.039-.082.077-.205.115-.287l-12.714-7.049c-.038.123-.115.164-.19.246zM212.667 131.489l12.486 6.925c.038-.082.038-.205.076-.287l-12.41-6.884c-.038.082-.076.164-.152.246zM213.124 130.71l12.22 6.762c0-.123.038-.205.038-.328l-12.106-6.72a.678.678 0 0 1-.152.286zM225.42 136.16l-11.84-6.557a.805.805 0 0 0-.075.287l11.915 6.598v-.328zM225.305 135.054l-11.534-6.393c0 .123-.038.205-.038.328l11.649 6.434c-.039-.123-.039-.246-.077-.37zM225 133.866l-11-6.107a2.12 2.12 0 0 0-.115.287l11.23 6.229c0-.123-.038-.246-.114-.41zM224.43 132.595c-.038-.04-.038-.082-.076-.082l-9.745-5.409c-.114.041-.19.123-.266.205l10.278 5.696a1.983 1.983 0 0 0-.191-.41zM222.64 130.505l-6.28-3.483a2.964 2.964 0 0 0-.838-.123l7.956 4.426c-.266-.287-.533-.533-.837-.82z"/>
            </g>
            <path fill="url(#b)" d="M212.858 35.391c-.685-.942-1.37-1.844-2.056-2.746L108.86 116.736a46.347 46.347 0 0 0 1.942 2.868c3.768 5.287 8.07 9.795 12.79 13.565l1.294-1.68 50.057-12.868-.114 2.09-50.552 12.99c.38.287.799.615 1.18.902l49.258-12.663c-.038.697-.153 1.23-.229 1.967l-47.088 12.09c.229.163.495.327.762.491l46.213-11.884c-.153.737-.305 1.64-.496 2.377l-43.205 11.105c.419.246.837.492 1.218.697l41.759-10.737c-.19.574-.38 1.311-.571 2.05l-38.79 9.957c.457.246.914.451 1.37.697l37.001-9.507c-.228.737-.457 1.475-.761 2.09l-33.537 8.606 1.827.737 31.177-8.032c-.381.779-.762 1.557-1.18 2.377l-26.609 6.843c.419.123.8.246 1.218.37l24.972-6.394c-.419.984-.952 1.803-1.447 2.623l-19.147 4.918c.762.164 1.523.328 2.284.45l15.874-4.057c-.19.41-.419.615-.647.902-.38.491-.723.983-1.142 1.434l-9.25 2.377c1.256.123 2.512.205 3.768.246l4.188-1.066c-.343.37-.686.738-1.028 1.066 13.209-.287 26.456-4.959 37.724-14.261 28.169-23.276 33.498-66.715 11.915-97.081zm-53.103 49.872c.038.041.114.123.152.123l-.304.082.152-.205zm-1.256 1.68l2.474-.655c.114.164.19.123.266.205.533.45 1.028.983 1.523 1.393l-6.243 1.598 1.98-2.54zm-3.046 4.058l8.26-2.131c.496.573.915.983 1.371 1.516l-11.382 2.91L155.453 91zm-2.398 3.196L165.58 91l1.37 1.72-15.835 4.058 1.941-2.582zm-3.045 4.057l17.625-4.549c.38.574.685 1.025 1.065 1.64l-20.441 5.245 1.75-2.336zm-2.855 3.811l22.155-5.696c.304.45.609 1.065.875 1.475l-24.781 6.352 1.751-2.13zm-2.627 3.401l26.076-6.72c.305.615.647 1.393.952 2.008l-29.235 7.5 2.207-2.788zm-2.855 3.689l30.149-7.746c.305.78.533 1.394.761 2.05l-32.85 8.4 1.94-2.704zm-3.045 4.016l34.26-8.81c.19.655.38 1.27.533 1.761l-36.544 9.385 1.751-2.336zm-2.398 3.196l37.381-9.59c.19.82.343 1.476.533 2.255l-40.046 10.286 2.132-2.95zm-3.084 4.057l41.112-10.573c.115.656.229 1.312.305 1.803l-43.13 11.065 1.713-2.295zm-2.816 3.852l44.347-11.392c.076.656.114 1.188.152 1.844l-46.25 11.884 1.75-2.336zm-4.797 6.352l2.17-2.95 47.203-12.13c.038.86.038 1.516.076 2.376l-49.449 12.704z" opacity=".7"/>
            <path fill="#EBF2FE" d="M136.496 157.388l19.376-5c1.447-.901 2.893-1.762 4.226-2.991l-28.664 7.376c1.712.45 3.35.533 5.062.615zM160.021 146.692l-33.879 8.688c1.104.41 2.208.82 3.35 1.024l32.166-8.278c.533-.45 1.028-.942 1.523-1.475a26.961 26.961 0 0 1-3.16.041z"/>
            <path fill="#BED6FD" d="M164.209 145.627l-4.187 1.065c1.065.041 2.093.041 3.16 0 .341-.328.684-.697 1.027-1.065z"/>
            <path fill="#EBF2FE" d="M113.504 146.446l-.495.656c.381.369.762.82 1.142 1.066l24.173-6.23a53.57 53.57 0 0 1-2.665-1.188l-22.155 5.696z"/>
            <path fill="#BED6FD" d="M172.66 131.243l-37.001 9.507c.875.41 1.789.82 2.664 1.189l33.537-8.606c.343-.574.571-1.353.8-2.09z"/>
            <path fill="#EBF2FE" d="M119.442 138.742l-2.207 2.787 13.475-3.442a42.907 42.907 0 0 1-2.512-1.599l-8.756 2.254z"/>
            <path fill="#BED6FD" d="M174.373 124.645L128.16 136.53l2.512 1.598 43.206-11.105c.19-.779.342-1.68.495-2.377z"/>
            <path fill="#EBF2FE" d="M116.36 142.8l-1.752 2.335 19.68-5.04c-.799-.41-1.598-.82-2.36-1.271l-15.569 3.975z"/>
            <path fill="#BED6FD" d="M173.65 128.087l-41.76 10.737c.8.45 1.561.86 2.36 1.27l38.866-9.999c.152-.737.343-1.434.533-2.008z"/>
            <path fill="#EBF2FE" d="M115.217 149.11c.647.532 1.333 1.024 2.018 1.557l26.342-6.762c-1.142-.369-2.284-.737-3.388-1.188l-24.972 6.393z"/>
            <path fill="#BED6FD" d="M171.365 134.685l-31.176 8.032c1.142.451 2.246.82 3.388 1.189l26.608-6.844c.419-.82.8-1.598 1.18-2.377zM161.24 86.534c-.076-.082-.153-.082-.267-.205l-2.474.655-1.98 2.582 6.243-1.598c-.457-.45-.99-.984-1.522-1.434zM173.611 106.778l-37.381 9.59-2.17 2.95 40.046-10.286c-.152-.779-.305-1.435-.495-2.254z"/>
            <path fill="#EBF2FE" d="M121.765 153.454c.837.45 1.713.942 2.588 1.23l31.9-8.197a65.243 65.243 0 0 1-4.834-.655l-29.654 7.622z"/>
            <path fill="#BED6FD" d="M166.645 142.635c.228-.287.457-.532.647-.901l-15.874 4.057c1.6.286 3.198.491 4.835.655l9.25-2.376c.38-.41.761-.943 1.142-1.435zM159.755 85.263l-.152.205.304-.082c-.038 0-.114-.081-.152-.123z"/>
            <path fill="#EBF2FE" d="M117.958 151.159c.8.656 1.599 1.147 2.398 1.64l28.778-7.418a85.668 85.668 0 0 1-4.377-1.107l-26.799 6.885z"/>
            <path fill="#BED6FD" d="M169.728 137.84l-24.971 6.393c1.446.41 2.893.779 4.377 1.107l19.147-4.918c.534-.778 1.029-1.598 1.447-2.582z"/>
            <path fill="#EBF2FE" d="M121.84 135.546l-1.75 2.336 7.308-1.886c-.647-.45-1.294-.901-1.941-1.393l-3.616.943z"/>
            <path fill="#BED6FD" d="M174.715 121.94l-49.258 12.663c.647.492 1.295.942 1.942 1.393l47.088-12.089c.076-.696.19-1.27.228-1.967zM169.31 96.369l-22.155 5.696-1.79 2.172 24.782-6.352a11.566 11.566 0 0 0-.837-1.516zM165.58 90.96l-12.525 3.196-1.98 2.582 15.837-4.057c-.42-.574-.876-1.148-1.333-1.721zM167.635 93.705l-17.625 4.549-1.751 2.336 20.441-5.246c-.342-.614-.685-1.065-1.065-1.639zM170.604 98.787l-26.076 6.72-2.207 2.787 29.235-7.5a19.105 19.105 0 0 0-.952-2.007zM163.714 88.87l-8.26 2.13-1.752 2.336 11.382-2.91c-.456-.573-.875-.983-1.37-1.556z"/>
            <path fill="#EBF2FE" d="M122.907 134.07l1.37-.368c-.228-.164-.457-.37-.685-.533l-.685.901z"/>
            <path fill="#BED6FD" d="M174.944 118.62l-50.058 12.869-1.294 1.68c.228.164.457.369.685.533l50.553-12.991c.037-.697.075-1.393.114-2.09z"/>
            <path fill="#EBF2FE" d="M151.076 154.847l-9.289 2.377c3.16-.45 6.32-1.106 9.289-2.377z"/>
            <path fill="#BED6FD" d="M174.715 112.843l-44.347 11.392-1.751 2.336 46.25-11.884c-.076-.656-.076-1.147-.152-1.844zM127.703 127.678l-2.17 2.95 49.41-12.703c0-.861 0-1.558-.075-2.377l-47.165 12.13zM172.888 104.401l-34.26 8.81-1.751 2.336 36.543-9.384c-.152-.492-.304-1.147-.532-1.762zM174.258 109.892l-41.112 10.573-1.75 2.336 43.129-11.065c-.038-.532-.152-1.188-.267-1.844zM171.822 101.41l-30.149 7.745-1.941 2.745 32.813-8.442c-.19-.655-.419-1.27-.723-2.049z"/>
            <path fill="#EEE" d="M193.406 57.151h1.142v2.869h-1.142V57.15zm0 24.588h1.142v3.278h-1.142V81.74zm-1.904-31.145h1.523v3.279h-1.523v-3.279zm0 24.588h1.523v3.279h-1.523v-3.279zM189.6 44.447h1.523v2.869h-1.523v-2.869zm0 24.588h1.523v3.279h-1.523v-3.279zm0 25.408h1.523v3.278h-1.523v-3.278zm-2.665-56.552h1.523v3.278h-1.523v-3.278zm0 25.407h1.523v3.279h-1.523v-3.279zm0 24.588h1.523v3.279h-1.523v-3.279zm-1.903-30.735h1.142v2.869h-1.142V57.15zm0 24.588h1.142v3.278h-1.142V81.74zm-1.903-31.145h1.142v3.279h-1.142v-3.279zm0 24.588h1.142v3.279h-1.142v-3.279zm0 25.408h1.142v2.868h-1.142v-2.868zm-2.284-56.143h1.142v2.869h-1.142v-2.869zm0 24.588h1.142v3.279h-1.142v-3.279zm0 25.408h1.142v3.278h-1.142v-3.278zm-2.665-56.552h1.523v3.278h-1.523v-3.278zm0 25.407h1.523v3.279h-1.523v-3.279zm0 24.588h1.523v3.279h-1.523v-3.279zm0 25.407h1.523v2.869h-1.523v-2.869zm-1.903-81.14h1.522v2.46h-1.522v-2.46zm0 24.998h1.522v2.869h-1.522V57.15zm0 24.588h1.522v3.278h-1.522V81.74zm0 25.408h1.522v2.868h-1.522v-2.868zm-1.903-81.55h1.142v2.868h-1.142v-2.868zm0 24.997h1.142v3.279h-1.142v-3.279zm0 24.588h1.142v3.279h-1.142v-3.279zm0 25.408h1.142v2.868h-1.142v-2.868zm-2.285-81.14h1.523v2.868h-1.523V19.45zm0 24.997h1.523v2.869h-1.523v-2.869zm0 24.588h1.523v3.279h-1.523v-3.279zm0 25.408h1.523v3.278h-1.523v-3.278zm0 25.407h1.523v2.869h-1.523v-2.869zm-2.283-81.96h1.522v3.28h-1.522v-3.28zm0 25.408h1.522v3.279h-1.522v-3.279zm0 24.588h1.522v3.279h-1.522v-3.279zm0 25.407h1.522v2.869h-1.522v-2.869zm-1.904-81.14h1.142v2.46h-1.142v-2.46zm0 24.998h1.142v2.869h-1.142V57.15zm0 24.588h1.142v3.278h-1.142V81.74zm0 25.408h1.142v2.868h-1.142v-2.868zm-2.284-81.55h1.523v2.868h-1.523v-2.868zm0 24.997h1.523v3.279h-1.523v-3.279zm0 24.588h1.523v3.279h-1.523v-3.279zm0 25.408h1.523v2.868h-1.523v-2.868zm-1.903-81.14h1.523v2.868h-1.523V19.45zm0 24.997h1.523v2.869h-1.523v-2.869zm0 24.588h1.523v3.279h-1.523v-3.279zm0 25.408h1.523v3.278h-1.523v-3.278zm0 25.407h1.523v2.869h-1.523v-2.869zm-2.665-106.957h1.523v2.869h-1.523v-2.869zm0 24.998h1.523v3.278h-1.523v-3.278zm0 25.407h1.523v3.279h-1.523v-3.279zm0 24.588h1.523v3.279h-1.523v-3.279zm0 25.407h1.523v2.869h-1.523v-2.869zm-1.903-81.14h1.142v2.46h-1.142v-2.46zm0 24.998h1.142v2.869h-1.142V57.15zm0 24.588h1.142v3.278h-1.142V81.74zm0 25.408h1.142v2.868h-1.142v-2.868zm-1.903-81.55h1.142v2.868h-1.142v-2.868zm0 24.997h1.142v3.279h-1.142v-3.279zm0 24.588h1.142v3.279h-1.142v-3.279zm0 25.408h1.142v2.868h-1.142v-2.868zm0 25.407h1.142v2.869h-1.142v-2.869zM154.959 19.45h1.522v2.868h-1.522V19.45zm0 24.997h1.522v2.869h-1.522v-2.869zm0 24.588h1.522v3.279h-1.522v-3.279zm0 25.408h1.522v3.278h-1.522v-3.278zm0 25.407h1.522v2.869h-1.522v-2.869zm-2.284-106.957h1.142v2.869h-1.142v-2.869zm0 24.998h1.142v3.278h-1.142v-3.278zm0 25.407h1.142v3.279h-1.142v-3.279zm0 24.588h1.142v3.279h-1.142v-3.279zm0 25.407h1.142v2.869h-1.142v-2.869zM150.39 6.746h1.522v2.869h-1.522V6.746zm0 25.408h1.522v2.459h-1.522v-2.46zm0 24.997h1.522v2.869h-1.522V57.15zm0 24.588h1.522v3.278h-1.522V81.74zm0 25.408h1.522v2.868h-1.522v-2.868zm0 25.407h1.522v2.869h-1.522v-2.869zm-1.904-106.957h1.523v2.868h-1.523v-2.868zm0 24.997h1.523v3.279h-1.523v-3.279zm0 24.588h1.523v3.279h-1.523v-3.279zm0 25.408h1.523v2.868h-1.523v-2.868zm0 25.407h1.523v2.869h-1.523v-2.869zM146.584 19.45h1.142v2.868h-1.142V19.45zm0 24.997h1.142v2.869h-1.142v-2.869zm0 24.588h1.142v3.279h-1.142v-3.279zm0 25.408h1.142v3.278h-1.142v-3.278zm0 25.407h1.142v2.869h-1.142v-2.869zm-2.665-106.957h1.523v2.869h-1.523v-2.869zm0 24.998h1.523v3.278h-1.523v-3.278zm0 25.407h1.523v3.279h-1.523v-3.279zm0 24.588h1.523v3.279h-1.523v-3.279zm0 25.407h1.523v2.869h-1.523v-2.869zM141.635 6.746h1.904v2.869h-1.904V6.746zm0 25.408h1.904v2.459h-1.904v-2.46zm0 24.997h1.904v2.869h-1.904V57.15zm0 24.588h1.904v3.278h-1.904V81.74zm0 25.408h1.904v2.868h-1.904v-2.868zm0 25.407h1.904v2.869h-1.904v-2.869zm-1.903-106.957h1.523v2.868h-1.523v-2.868zm0 24.997h1.523v3.279h-1.523v-3.279zm0 24.588h1.523v3.279h-1.523v-3.279zm0 25.408h1.523v2.868h-1.523v-2.868zm0 25.407h1.523v2.869h-1.523v-2.869zM137.829 19.45h1.522v2.868h-1.522V19.45zm0 24.997h1.522v2.869h-1.522v-2.869zm0 24.588h1.522v3.279h-1.522v-3.279zm0 25.408h1.522v3.278h-1.522v-3.278zm0 25.407h1.522v2.869h-1.522v-2.869zm-2.284-106.957h1.142v2.869h-1.142v-2.869zm0 24.998h1.142v3.278h-1.142v-3.278zm0 25.407h1.142v3.279h-1.142v-3.279zm0 24.588h1.142v3.279h-1.142v-3.279zm0 25.407h1.142v2.869h-1.142v-2.869zM65.122 60.02H63.98V57.15h1.142v2.869zm2.284 31.145h-1.142v-3.279h1.142v3.279zm0-24.588h-1.142v-3.279h1.142v3.279zM69.69 97.72h-1.142v-3.278h1.142v3.278zm0-25.407h-1.142v-3.279h1.142v3.279zm0-24.998h-1.142v-2.868h1.142v2.868zm2.284 56.142h-1.142v-2.868h1.142v2.868zm0-24.997h-1.142v-3.278h1.142v3.278zm0-24.588h-1.142v-3.278h1.142v3.278zm1.903 31.144h-1.523V81.74h1.523v3.278zm0-24.997h-1.523V57.15h1.523v2.869zm1.903 31.145h-1.142v-3.279h1.142v3.279zm0-24.588h-1.142v-3.279h1.142v3.279zm0-25.408h-1.142v-3.278h1.142v3.278zm2.665 56.552h-1.523v-3.278h1.523v3.278zm0-25.407h-1.523v-3.279h1.523v3.279zm0-24.998h-1.523v-2.868h1.523v2.868zm2.284 56.142h-1.523v-2.868h1.523v2.868zm0-24.997h-1.523v-3.278h1.523v3.278zm0-24.588h-1.523v-3.278h1.523v3.278zm0-25.407h-1.523v-2.869h1.523v2.869zm1.903 81.55H81.11v-2.87h1.522v2.87zm0-24.999H81.11V81.74h1.522v3.278zm0-24.997H81.11V57.15h1.522v2.869zm0-25.408H81.11v-2.459h1.522v2.46zm1.903 81.55h-1.142v-2.868h1.142v2.868zm0-24.997h-1.142v-3.279h1.142v3.279zm0-24.588h-1.142v-3.279h1.142v3.279zm0-25.408h-1.142v-3.278h1.142v3.278zm2.665 81.55h-1.522v-2.868H87.2v2.868zm0-24.998h-1.522v-3.278H87.2v3.278zm0-25.407h-1.522v-3.279H87.2v3.279zm0-24.998h-1.522v-2.868H87.2v2.868zm0-24.998h-1.522V19.45H87.2v2.868zm1.903 81.14h-1.522v-2.868h1.522v2.868zm0-24.997h-1.522v-3.278h1.522v3.278zm0-24.588h-1.522v-3.278h1.522v3.278zm0-25.407h-1.522v-2.869h1.522v2.869zm1.904 81.55h-1.523v-2.87h1.523v2.87zm0-24.999h-1.523V81.74h1.523v3.278zm0-24.997h-1.523V57.15h1.523v2.869zm0-25.408h-1.523v-2.459h1.523v2.46zm2.284 81.55h-1.523v-2.868h1.523v2.868zm0-24.997h-1.523v-3.279h1.523v3.279zm0-24.588h-1.523v-3.279h1.523v3.279zm0-25.408h-1.523v-3.278h1.523v3.278zm0-25.407h-1.523v-2.869h1.523v2.869zm2.284 106.957h-1.142v-2.868h1.142v2.868zm0-24.998h-1.142v-3.278h1.142v3.278zm0-25.407h-1.142v-3.279h1.142v3.279zm0-24.998h-1.142v-2.868h1.142v2.868zm0-24.998h-1.142V19.45h1.142v2.868zm2.284 106.548h-1.523v-2.869h1.523v2.869zm0-25.408h-1.523v-2.868h1.523v2.868zm0-24.997h-1.523v-3.278h1.523v3.278zm0-24.588h-1.523v-3.278h1.523v3.278zm0-25.407h-1.523v-2.869h1.523v2.869zm1.903 81.55H98.62v-2.87h1.142v2.87zm0-24.999H98.62V81.74h1.142v3.278zm0-24.997H98.62V57.15h1.142v2.869zm0-25.408H98.62v-2.459h1.142v2.46zm1.904 81.55h-1.142v-2.868h1.142v2.868zm0-24.997h-1.142v-3.279h1.142v3.279zm0-24.588h-1.142v-3.279h1.142v3.279zm0-25.408h-1.142v-3.278h1.142v3.278zm0-25.407h-1.142v-2.869h1.142v2.869zm2.664 106.957h-1.523v-2.868h1.523v2.868zm0-24.998h-1.523v-3.278h1.523v3.278zm0-25.407h-1.523v-3.279h1.523v3.279zm0-24.998h-1.523v-2.868h1.523v2.868zm0-24.998h-1.523V19.45h1.523v2.868zm1.904 106.548h-1.523v-2.869h1.523v2.869zm0-25.408h-1.523v-2.868h1.523v2.868zm0-24.997h-1.523v-3.278h1.523v3.278zm0-24.588h-1.523v-3.278h1.523v3.278zm0-25.407h-1.523v-2.869h1.523v2.869zm1.903 106.957h-1.142v-2.869h1.142v2.869zm0-25.408h-1.142v-2.868h1.142v2.868zm0-24.998h-1.142V81.74h1.142v3.278zm0-24.997h-1.142V57.15h1.142v2.869zm0-25.408h-1.142v-2.459h1.142v2.46zm0-24.997h-1.142V6.746h1.142v2.869zm2.284 106.547h-1.523v-2.868h1.523v2.868zm0-24.997h-1.523v-3.279h1.523v3.279zm0-24.588h-1.523v-3.279h1.523v3.279zm0-25.408h-1.523v-3.278h1.523v3.278zm0-25.407h-1.523v-2.869h1.523v2.869zm2.664 106.957h-1.522v-2.868h1.522v2.868zm0-24.998h-1.522v-3.278h1.522v3.278zm0-25.407h-1.522v-3.279h1.522v3.279zm0-24.998h-1.522v-2.868h1.522v2.868zm0-24.998h-1.522V19.45h1.522v2.868zm1.904 106.548h-1.523v-2.869h1.523v2.869zm0-25.408h-1.523v-2.868h1.523v2.868zm0-24.997h-1.523v-3.278h1.523v3.278zm0-24.588h-1.523v-3.278h1.523v3.278zm0-25.407h-1.523v-2.869h1.523v2.869zm1.903 106.957h-1.523v-2.869h1.523v2.869zm0-25.408h-1.523v-2.868h1.523v2.868zm0-24.998h-1.523V81.74h1.523v3.278zm0-24.997h-1.523V57.15h1.523v2.869zm0-25.408h-1.523v-2.459h1.523v2.46zm0-24.997h-1.523V6.746h1.523v2.869zm2.284 106.547h-1.523v-2.868h1.523v2.868zm0-24.997h-1.523v-3.279h1.523v3.279zm0-24.588h-1.523v-3.279h1.523v3.279zm0-25.408h-1.523v-3.278h1.523v3.278zm0-25.407h-1.523v-2.869h1.523v2.869zm2.284 106.957h-1.142v-2.868h1.142v2.868zm0-24.998h-1.142v-3.278h1.142v3.278zm0-25.407h-1.142v-3.279h1.142v3.279zm0-24.998h-1.142v-2.868h1.142v2.868zm0-24.998h-1.142V19.45h1.142v2.868zm2.284 106.548h-1.523v-2.869h1.523v2.869zm0-25.408h-1.523v-2.868h1.523v2.868zm0-24.997h-1.523v-3.278h1.523v3.278zm0-24.588h-1.523v-3.278h1.523v3.278zm0-25.407h-1.523v-2.869h1.523v2.869zm1.903 106.957h-1.523v-2.869h1.523v2.869zm0-25.408h-1.523v-2.868h1.523v2.868zm0-24.998h-1.523V81.74h1.523v3.278zm0-24.997h-1.523V57.15h1.523v2.869zm0-25.408h-1.523v-2.459h1.523v2.46zm0-24.997h-1.523V6.746h1.523v2.869zm1.904 106.547h-1.523v-2.868h1.523v2.868zm0-24.997h-1.523v-3.279h1.523v3.279zm0-24.588h-1.523v-3.279h1.523v3.279zm0-25.408h-1.523v-3.278h1.523v3.278zm0-25.407h-1.523v-2.869h1.523v2.869zm3.045 106.957h-1.523v-2.868h1.523v2.868zm0-24.998h-1.523v-3.278h1.523v3.278zm0-25.407h-1.523v-3.279h1.523v3.279zm0-24.998h-1.523v-2.868h1.523v2.868zm0-24.998h-1.523V19.45h1.523v2.868zm2.284 106.548h-1.523v-2.869h1.523v2.869zm0-25.408h-1.523v-2.868h1.523v2.868zm0-24.997h-1.523v-3.278h1.523v3.278zm0-24.588h-1.523v-3.278h1.523v3.278zm0-25.407h-1.523v-2.869h1.523v2.869zm0-25.408h-1.523V.19h1.523v2.868zm1.903 132.365h-1.523v-2.869h1.523v2.869zm0-25.408h-1.523v-2.868h1.523v2.868zm0-24.998h-1.523V81.74h1.523v3.278zm0-24.997h-1.523V57.15h1.523v2.869zm0-25.408h-1.523v-2.459h1.523v2.46zm-1.522-24.997V6.746h1.522v2.869h-1.522z"/>
            <g fill="#FFF">
                <path d="M70.832 26.007h-5.33V51.66l5.33 5.655zM60.935 26.007h-5.33v15.162l5.33 5.656zM51.037 26.007H46.09v4.671l4.948 5.655zM89.865 26.007h-4.949v46.635l4.949 5.45zM94.433 82.886L99 87.722V26.007h-4.568zM80.348 26.007h-5.33V62.15l5.33 5.655z"/>
            </g>
        </g>
        <path fill="#81AEF2" d="M96.952 117.006c.184 8.56-1.256 4.364-.71 8.081 2.184 14.861 1.944 30.066 2.123 44.965.168 14.013-4.204 21.498-.661 41.913 3.1 17.864 9.5 35.906 8.23 53.804 3.38-.864 6.975-.956 10.488-.27l.489-55.844c.09-10.337.178-20.714-1.085-31.06-2.597-21.255-10.781-41.595-18.874-61.59z"/>
        <path fill="#A1C3FC" d="M119.308 145.547a124.21 124.21 0 0 0-19.162-4.257c3.78 41.013 7.77 82.002 11.97 122.968l7.067-.933 3.302-46.858c.52-7.375 1.04-14.783.509-22.156-1.18-16.379-7.498-32.853-3.686-48.764z"/>
        <path fill="#FFF" d="M99.2 173.394v46.223c.169.789.34 1.577.514 2.366v-48.589H99.2zM102.618 173.394v61.493c.174.795.345 1.59.513 2.386v-63.879h-.513zM106.047 173.394h1v92.248h-1zM109.491 173.394h1v92.248h-1zM112.892 173.394h1v92.248h-1zM116.293 173.394h1v92.248h-1zM120.215 173.394h-.342c.112.66.227 1.32.342 1.979v-1.979z"/>
        <path fill="#FFF" d="M119.873 173.394h-.17v82.559l.513-7.272v-73.309c-.116-.66-.23-1.32-.343-1.978z"/>
        <path fill="#1D72D8" d="M117.11 277c-.272-4.72-.53-9.635-.8-14.354-4.429.193-10.337-.29-10.337-.29s-5.83 1.585-8.676 2.558c-7.408 2.532-14.306 5.35-17.72 10.303-.1.124-.801 1.633-.817 1.784h38.35V277z"/>
        <path fill="#428DFC" d="M105.623 277h27.908c-1.258-3.94-11.499-13.102-14.209-14.613l-7.535-.049s-5.419 6.122-6.164 14.662z"/>
        <path fill="#151A4F" d="M117.14 28.752c-.574-.88-1.77-1.677-4.199-1.677s-3.493.474-4.236 1.635c-.607.95 1.898 2.59 4.328 2.59 2.43 0 4.722-1.603 4.107-2.548z"/>
        <path fill="url(#c)" d="M73.864 33.45l-7.369.471c.766-4.312.47-8.155-.036-12.788l7.33-.433c-.35 3.96-.828 8.16.075 12.75z" transform="translate(43)"/>
        <path fill="url(#d)" d="M53.408 37.07c1.624-2.519 4.509-3.4 7.291-4.074 3.204-.776 6.646-1.404 9.96-1.432 3.673-.03 7.154 1.395 10.23 2.632 3.531 1.422 5.971 4.37 6.407 8.39.436 4.021.381 14.283-.128 18.295-1.54 12.122-.799 20.845-1.281 33.01-7.962-.625-33.486-.839-33.548-1.199-2.67-15.532-1.01-33.262-.52-49.047.07-2.29.374-4.691 1.59-6.576z" transform="translate(43)"/>
        <path fill="#D62929" d="M95.58 85.185c-3.033.991.785 63.838 1.93 93.899 7.518.827 16.121.507 23.599.507 2.978-31.327 5.367-62.87 7.75-93.572-11.133-.891-33.279-.834-33.279-.834z"/>
        <path fill="url(#e)" d="M116 99.381l-17.98 22.87-30.555-27.68L85.444 71.7z" transform="translate(43)"/>
        <path fill="#1D72D8" d="M73.619 81.562c2.95-8.525 7.224-14.685 9.544-13.76 2.32.925 1.809 8.586-1.142 17.11-2.951 8.525-7.224 14.686-9.544 13.76-2.32-.924-1.809-8.585 1.142-17.11zM142.955 95.666c-5.122-4.586-8.283-9.58-7.059-11.156 1.224-1.575 7.27-1.69 12.392 2.897 5.122 4.586 6.613 11.757 5.859 14.094-.625 1.939-6.07-1.25-11.192-5.835z"/>
        <path fill="#FFBEB6" d="M102.963 13.737c-.089.98-.02 1.975.163 2.941.552 2.925 2.217 5.638 4.628 7.122 2.412 1.485 5.553 1.625 7.967.144a6.147 6.147 0 0 0 1.521-1.296c1.618-1.943 1.757-4.845 1.344-7.414-.706-4.38-3.143-8.8-7.094-10.13-.928-.312-1.946-.44-2.868-.11-.812.292-1.484.909-2.092 1.557-1.83 1.951-3.317 4.429-3.569 7.186z"/>
        <path fill="#E94A47" d="M105.115 5.81c-.58 1.965-1.678 3.895-3.433 4.734-.75.36-1.62.496-2.4.222-1.952-.684-2.466-3.52-1.814-5.608.635-2.038 2.062-3.778 3.865-4.713.533-.276 1.116-.488 1.705-.438 1.11.093 2.01 1.126 2.31 2.278.3 1.15.102 2.386-.233 3.525zM115.81 8.628a.25.25 0 0 1-.198-.1c-1.267-1.642-2.894-2.892-4.707-3.613a10.07 10.07 0 0 0-4.923-.644c-.14.02-.267-.091-.284-.242-.016-.151.085-.287.226-.304 1.736-.211 3.52.022 5.16.674 1.895.755 3.598 2.06 4.922 3.779a.29.29 0 0 1-.033.387.247.247 0 0 1-.163.063z"/>
        <path fill="#E94A47" d="M113.963 9.224a.252.252 0 0 1-.217-.128c-.66-1.123-1.727-2.069-3.084-2.735-1.32-.647-2.75-.966-3.975-1.191-.32-.059-.514-.036-.59.07a.244.244 0 0 1-.36.048.289.289 0 0 1-.045-.386c.303-.418.87-.314 1.081-.275 1.258.231 2.729.558 4.102 1.233 1.448.71 2.591 1.728 3.305 2.94a.287.287 0 0 1-.08.38.233.233 0 0 1-.137.044zM111.869 11.124a.25.25 0 0 1-.208-.114c-1.1-1.635-2.997-3.756-5.784-4.57-.137-.04-.217-.19-.18-.338.036-.145.177-.233.314-.193 2.321.677 4.419 2.33 6.066 4.78a.29.29 0 0 1-.058.384.243.243 0 0 1-.15.051zM109.531 12.32a.26.26 0 0 1-.246-.199c-.415-1.529-1.67-2.696-2.68-3.634-.405-.377-.865-.804-1.39-.976-.136-.045-.211-.2-.17-.344.04-.145.184-.227.32-.182.63.208 1.13.675 1.574 1.087 1.06.986 2.381 2.212 2.838 3.897.039.145-.038.298-.175.34a.234.234 0 0 1-.07.01zM106.495 13.661a13.855 13.855 0 0 0-2.136-4.978l.412-.328a14.429 14.429 0 0 1 2.223 5.184l-.5.122zM105.075 19.399c-.142 0-.256-.124-.256-.275v-1.533c0-2.468 0-5.26-1.142-7.578a.3.3 0 0 1-.233-.24.321.321 0 0 1 .197-.32.329.329 0 0 1 .415.155c1.276 2.47 1.276 5.398 1.276 7.983v1.533c0 .151-.116.275-.257.275z"/>
        <path fill="#23286B" d="M117.46 14.391c-2.068 0-3.75-1.806-3.75-4.027 0-2.22 1.682-4.026 3.75-4.026 2.07 0 3.752 1.806 3.752 4.026 0 2.221-1.683 4.027-3.751 4.027zm0-6.952c-1.503 0-2.725 1.312-2.725 2.925 0 1.613 1.223 2.926 2.726 2.926s2.725-1.312 2.725-2.926-1.222-2.925-2.725-2.925zM109.309 19.786c-2.069 0-3.752-1.806-3.752-4.027 0-2.22 1.683-4.026 3.752-4.026 2.068 0 3.75 1.806 3.75 4.026 0 2.22-1.682 4.027-3.75 4.027zm0-6.953c-1.504 0-2.726 1.312-2.726 2.926s1.223 2.926 2.726 2.926 2.725-1.312 2.725-2.926-1.222-2.926-2.725-2.926z"/>
        <path fill="#23286B" d="M111.685 14.212a4.038 4.038 0 0 1 .28-1.547c.274-.686.716-1.188 1.243-1.413a1.51 1.51 0 0 1 1.853.537l-.822.657c-.158-.228-.449-.26-.651-.172-.268.115-.516.415-.68.825a2.86 2.86 0 0 0-.197 1.096l-1.026.017z"/>
        <path fill="#E94A47" d="M102.665 3.771c.296-.177.65-.194.99-.206 3.335-.121 6.982-.137 9.595 2.09-2.564-1.032-5.51.488-7.254 2.754-2.894 3.759-3.083 9.398-.533 13.432-3.726-4.495-5.178-10.901-3.607-16.678.146-.539.352-1.119.809-1.392z"/>
        <path fill="#FFF" d="M101.082 10.21a.25.25 0 0 1-.209-.118c-.276-.423-.314-1.002-.114-1.771.622-2.395 2.255-4.432 4.37-5.45a.25.25 0 0 1 .338.138.285.285 0 0 1-.13.364c-1.976.952-3.503 2.856-4.084 5.095-.074.282-.11.527-.108.734l.317-.663c.919-1.92 1.966-3.85 3.784-4.533.134-.052.28.025.326.169a.28.28 0 0 1-.157.35c-1.638.617-2.626 2.445-3.497 4.266l-.607 1.269a.256.256 0 0 1-.21.149h-.019z"/>
        <path fill="#23286B" d="M117.12 28.688c-2.01 2.105-2.052 2.165-3.482 2.873 1.59 1.83 2.064 4.232 3.908 5.764.35-2.267 3.13-4.504 3.13-4.504s-2.493-2.323-3.555-4.133z"/>
        <path fill="#23286B" d="M105.447 32.636s4.386 3.783 4.78 4.94c1.862-2.233 2.005-3.45 3.448-6.016-2.42-.887-3.296-1.171-4.985-2.833-1.394 2.203-3.243 3.909-3.243 3.909z"/>
        <path fill="url(#f)" d="M46.548 78.487c-.195-4.641-2.933-6.343-5.843-9.781-2.333-2.756-11.12-13.257-12.597-15.182-2.12-2.763-3.529-6.333-6.414-8.127-3.361-2.09-6.049-.929-9.641-2.528-2.273-1.012 1.607 3.68 4.066 3.763.855.029 1.738-.13 2.552.153.189.066.366.157.536.261-.99.2-2.152.546-2.822.872-4.62 2.246-10.111 2.151-15.002 3.594-.79.233-1.744 1.073-1.245 1.77.467.651 1.401.037 2.165-.028.443-.037 7.503-1.65 10.482-1.861-.542.273-1.09.53-1.664.713-1.344.429-2.766.445-4.166.544a34.423 34.423 0 0 0-3.415.417c-1.133.197-4.427.85-2.806 1.595 2.199 1.011 8.701.046 12.83-1.769-1.836 2.04-3.673 4.08-5.508 6.121-.372.412-1.032 1.241-.556 1.503.854.468 2.079-1.398 2.92-2.377a31.89 31.89 0 0 1 9.202-7.383 8.378 8.378 0 0 0 1.097-.491c.022-.004.042-.01.064-.011.607-.047 1.097.504 1.475 1.018 2.127 2.891 9.647 19.227 14.04 28.59 5.381 9.903 13.675 9.182 15.632 9.627.832-2.654-5.264-8.204-5.382-11.003z" transform="translate(43)"/>
        <path fill="#FFBEB6" d="M137.676 81.44c-4.72 8.155-7.484 12.676-12.205 20.831a19.269 19.269 0 0 1-9.405-2.565c.282 1.334 1.582 2.823 2.723 3.43 2.051 1.094 4.068 1.47 6.12 2.562-.821 3.08-.94 6.372-.343 9.51 1.108 1.15 1.918-2.124 1.979-3.563.3.621.525 1.048.898 1.391 1.097.491 1.97.899 2.653.407.885 1.56 1.588 1.82 2.602 1.457-.32-3.447-.71-6.495-1.03-9.942-.117-1.243-.226-2.541.199-3.703.504-1.38 1.669-2.333 2.763-3.237a99.492 99.492 0 0 0 15.2-15.726 17.974 17.974 0 0 0-11.124-.954c-.159.917-.572-.69-1.03.101z"/>
        <path fill="url(#g)" d="M84.2 36.366c3.805 3.855 5.533 9.437 8.093 14.336 1.674 3.204 2.325 6.532 4.377 9.472l9.45 13.542c1.221 1.751 2.459 3.531 3.191 5.572.446 1.24.695 2.55.941 3.854 1.188 6.268 2.437 12.185.908 18.369-.872-5.996-3.978-10.976-8.409-14.746-2.686-2.286-6.22-3.946-9.513-2.92l3.09-6.952c-4.562-2.292-5.982-7.565-8.666-12.14-3.187-5.431-3.328-8.084-3.87-11.575-.767-4.951-.496-17.726.408-16.812z" transform="translate(43)"/>
        <path fill="#428DFC" d="M94.26 42.543c-3.516 11.02-3.336 23.784-4.2 33.467-1.438-2.27-5.46-7.097-6.527-7.973.252 2.223.332 2.674.094 4.603a72.435 72.435 0 0 1-5.384 19.866c-1.129 2.61-2.706 5.4-5.313 6.072-2.607.67 5.593.935 11.25-.983 7.452-2.526 9.084-4.53 11.775-8.38.709-1.015 2.247-12.971 2.563-25.034.127-4.906.799-9.623.854-14.305.128-11.004.903-16.164-.617-15.09-.698.494-1.13.81-1.943 1.81-1.306 1.61-1.909 3.929-2.553 5.947z"/>
        <path fill="#FFF" d="M95.315 42.182c.036-.023.044-.053.024-.09-.02-.039-.048-.047-.084-.026-.035.02-.043.052-.024.09.02.039.056.017.084.026zm3.22-5.669c.029.008.065-.013.072-.043.008-.03-.012-.069-.04-.077-.028-.008-.064.013-.072.043-.044.052.005.098.04.077zm-1.8 2.745c.03.008.057.016.093-.005.008-.03.016-.06-.005-.099-.028-.008-.056-.016-.092.005-.043.053-.023.09.005.1zm5.05 6.702c.048.047.112.034.156-.018.043-.053.031-.121-.018-.168-.048-.047-.112-.034-.156.019-.072.043-.039.15.018.167zm-2.281-1.719c.048.047.112.034.156-.019.043-.052.032-.12-.017-.167-.05-.047-.113-.034-.157.018-.043.053-.03.121.018.168zm-2.272-1.749c.048.047.112.034.156-.018.043-.053.031-.121-.018-.168-.048-.047-.112-.034-.156.018-.043.053-.03.121.018.168zm-.544 6.791a.21.21 0 0 0 .047-.18.177.177 0 0 0-.168-.05c-.044.052-.06.112-.039.151.032.106.088.124.16.08zm-1.497-2.525a.21.21 0 0 0 .047-.18.179.179 0 0 0-.168-.05c-.044.051-.06.111-.04.15.041.077.126.102.161.08zm7.668-6.716c.056.016.128-.027.143-.087.016-.06-.025-.137-.08-.154-.057-.016-.128.027-.144.087-.016.06.025.137.081.154zm-2.729-.683c.056.017.128-.027.144-.086.015-.06-.026-.138-.081-.155-.057-.016-.128.028-.144.087-.016.06.025.138.081.154zm-2.701-.674c.056.016.128-.027.143-.087.016-.06-.025-.138-.08-.154-.057-.016-.129.027-.144.087-.023.09.025.137.08.154zm-3.09 12.076c.035-.022.087-.104.038-.15-.02-.04-.097-.095-.14-.042-.036.022-.088.104-.04.15.014.069.07.086.142.042zm6.762-8.48c.056.015.12.002.136-.058.015-.06-.005-.1-.054-.146-.056-.016-.12-.003-.136.057-.015.06-.003.129.054.146zm-2.358-.833c.056.016.12.003.136-.058.016-.06-.005-.099-.054-.145-.056-.016-.12-.004-.136.057-.015.06-.002.13.054.146zm-2.35-.862c.056.016.12.003.136-.058.016-.06-.005-.099-.054-.145-.056-.016-.12-.004-.136.057-.022.09-.002.13.054.146zm.976 5.944c.049.046.113.034.157-.019.043-.052.031-.12-.018-.168-.048-.046-.112-.034-.156.019-.043.052-.04.15.017.168zm-1.883-1.73c.048.046.112.033.148.01.043-.051.031-.12-.018-.167-.048-.047-.112-.034-.156.019-.035.021-.022.09.026.137zm5.035-7.89c.064-.014.1-.036.088-.105-.012-.069-.061-.115-.097-.094-.064.013-.108.065-.096.134 0 0 .049.048.105.064zm-2.466.175c.064-.013.107-.066.095-.134-.012-.069-.06-.116-.125-.103-.064.013-.108.066-.087.104.005.099.052.146.117.133-.028-.01 0 0 0 0zm-1.51 15.21c.049.046.112.034.156-.019.044-.053.032-.12-.017-.168-.049-.046-.113-.034-.156.019-.043.052-.03.12.017.168zm-2.181-1.982c.048.047.112.034.156-.019.043-.052.031-.12-.018-.168-.048-.046-.112-.033-.156.02-.036.021-.031.12.018.167zm6-10.332c.063-.013.107-.065.095-.134-.012-.069-.061-.115-.125-.102-.064.012-.108.065-.095.134-.016.06.06.115.124.102zm-2.88.247c.064-.013.108-.065.096-.134-.012-.069-.061-.115-.125-.102-.064.012-.108.065-.095.134.02.039.06.116.124.102zm.761 6.075c.057.016.128-.027.144-.087.015-.06-.026-.138-.081-.154-.056-.016-.128.027-.144.087-.016.06.025.137.081.154zm-2.723-.94c.056.016.128-.028.144-.087.015-.06-.026-.138-.081-.154-.057-.016-.128.027-.144.087-.016.06-.003.128.081.154zm2.602 3.048c.056.016.128-.027.143-.087.016-.06-.025-.137-.08-.154-.057-.016-.122-.003-.144.087-.016.06.025.138.08.154zm-2.692-1.061c.056.016.128-.027.143-.087.016-.06.003-.13-.08-.154-.057-.016-.128.027-.172.079.012.068.053.146.109.162zm2.193-5.325a.165.165 0 0 0 .123-.127.167.167 0 0 0-.117-.132.165.165 0 0 0-.123.126c-.016.06.061.116.117.133z"/>
    </g>
</svg>
