<svg xmlns="http://www.w3.org/2000/svg" width="294" height="241" viewBox="0 0 294 241">
    <defs>
        <linearGradient id="a" x1="0%" y1="50%" y2="50%">
            <stop offset="0%" stop-color="#428DFC"/>
            <stop offset="100%" stop-color="#1D72D8"/>
        </linearGradient>
        <linearGradient id="b" x1="-.001%" x2="99.999%" y1="50%" y2="50%">
            <stop offset="0%" stop-color="#FFBEB6"/>
            <stop offset="100%" stop-color="#F2A19C"/>
        </linearGradient>
        <linearGradient id="c" x1="0%" y1="50%" y2="50%">
            <stop offset="0%" stop-color="#428DFC"/>
            <stop offset="100%" stop-color="#1D72D8"/>
        </linearGradient>
        <linearGradient id="d" x1="0%" y1="50%" y2="50%">
            <stop offset="0%" stop-color="#D6D7D8"/>
            <stop offset="100%" stop-color="#EEE"/>
        </linearGradient>
        <linearGradient id="e" x1="-.002%" x2="99.999%" y1="49.999%" y2="49.999%">
            <stop offset="0%" stop-color="#FFBEB6"/>
            <stop offset="100%" stop-color="#F2A19C"/>
        </linearGradient>
    </defs>
    <g fill="none" fill-rule="nonzero">
        <path fill="#D9E021" d="M216 111.428L149.743 210 59 148.572 125.257 50z"/>
        <path fill="#A1C3FC" d="M2.635 44.13l4.219 1.948-1.948 4.225-4.219-1.947z"/>
        <g fill="#151A4F">
            <path d="M78.122 152.278l.02.042.027-.065-.047.023zM102.645 121.31c-.259.173-.517.348-.773.524l.828-.412-.055-.112zM116.222 114.673l-.106-.217c-1.72.63-3.4 1.342-5.048 2.112l.268.545 4.886-2.44zM85.082 138.805a64.681 64.681 0 0 0-2.865 4.687l4.153-2.072-1.288-2.615zM95.009 137.111l-2.425-4.92 4.888-2.439 2.424 4.92zM108.528 130.362l-2.424-4.919 4.888-2.439 2.424 4.919zM122.05 123.615l-2.423-4.92 4.887-2.44 2.425 4.92zM135.57 116.864l4.887-2.44-1.872-3.799c-.226-.002-.45-.017-.677-.017-.735 0-1.465.03-2.194.056l-2.568 1.281 2.423 4.92zM85.434 154.756l-2.424-4.918-4.84 2.416-.027.065 2.403 4.877 4.888-2.44zM94.07 150.45l-2.424-4.92 4.887-2.44 2.424 4.92zM107.592 143.701l-2.423-4.919 4.887-2.44 2.425 4.92zM121.115 136.952l-2.424-4.919 4.888-2.44 2.424 4.92zM134.634 130.204l-2.424-4.919 4.888-2.44 2.424 4.92zM80.2 163.086l2.423 4.92-4.888 2.439-2.423-4.92zM91.263 163.7l-2.424-4.92 4.888-2.439 2.424 4.919zM104.783 156.95l-2.424-4.92 4.888-2.44 2.424 4.92zM118.307 150.202l-2.424-4.919 4.888-2.44 2.424 4.92zM131.827 143.453l-2.425-4.92 4.889-2.44 2.423 4.92zM145.35 136.704l-2.425-4.92 4.888-2.438 2.424 4.918zM79.26 176.423l2.424 4.92-4.888 2.44-2.423-4.92zM95.21 174.593l-4.888 2.44-2.424-4.92 4.888-2.439zM103.848 170.288l-2.423-4.918 4.887-2.44 2.424 4.92zM117.367 163.54l-2.424-4.919 4.888-2.44 2.424 4.92zM130.889 156.79l-2.424-4.92 4.887-2.439 2.425 4.92zM144.41 150.042l-2.425-4.92 4.889-2.439 2.423 4.919zM76.455 189.675l-.55.275c.436 1.82.951 3.605 1.538 5.36l1.435-.718-2.423-4.917zM89.974 182.924l2.425 4.919-4.889 2.439-2.423-4.919zM103.495 176.176l2.425 4.918-4.888 2.44-2.424-4.92zM117.017 169.428l2.425 4.919-4.888 2.44-2.424-4.92zM132.967 167.598l-4.888 2.439-2.424-4.919 4.888-2.44zM139.174 158.375l4.887-2.44 2.425 4.92-4.889 2.44zM155.124 156.543l-2.424-4.919 4.888-2.439 2.423 4.92zM89.034 196.26l2.424 4.92-4.887 2.439-2.424-4.919zM102.558 189.513l2.424 4.92-4.888 2.439-2.424-4.919zM118.508 187.683l-4.888 2.44-2.424-4.92 4.887-2.439zM124.713 178.463l4.888-2.44 2.424 4.92-4.888 2.439zM145.552 174.183l-4.888 2.44-2.424-4.92 4.887-2.438zM154.188 169.882l-2.423-4.92 4.887-2.438 2.424 4.918zM85.664 211.659a63.782 63.782 0 0 0 3.169 4.188l-2.282-4.631-.887.443zM100.07 204.467l2.423 4.919-4.887 2.44-2.424-4.92zM113.59 197.717l2.423 4.919-4.888 2.44-2.423-4.92zM127.113 190.97l2.423 4.92-4.887 2.44-2.424-4.92zM143.063 189.137l-4.888 2.44-2.424-4.92 4.888-2.44zM156.585 182.391l-4.889 2.44-2.423-4.92 4.887-2.44zM165.218 178.086l-2.424-4.92 4.887-2.44 2.425 4.92zM99.135 217.807l-4.888 2.439 1.246 2.527a65.03 65.03 0 0 0 2.194 1.884l3.87-1.932-2.422-4.918zM112.652 211.055l2.423 4.918-4.887 2.44-2.425-4.92zM126.174 204.308l2.424 4.919-4.887 2.439-2.424-4.919zM134.809 200.005l4.887-2.44 2.424 4.92-4.887 2.44zM148.331 193.255l4.889-2.44 2.423 4.92-4.887 2.439zM164.284 191.425l-2.424-4.92 4.888-2.44 2.424 4.92zM109.847 224.307l-4.887 2.44 2.116 4.292c.247.137.493.275.743.409l4.453-2.223-2.425-4.918zM123.366 217.557l2.425 4.919-4.888 2.439-2.424-4.919zM136.885 210.806l2.425 4.919-4.888 2.44-2.424-4.92zM150.41 204.06l2.425 4.919-4.889 2.44-2.423-4.92zM163.929 197.311l2.423 4.919-4.887 2.44-2.424-4.92zM177.45 190.562l2.424 4.92-4.888 2.439-2.424-4.92zM122.431 230.896l-4.887 2.44 1.383 2.807c1.11.348 2.238.66 3.374.946l2.553-1.274-2.423-4.919zM135.95 224.145l2.424 4.92-4.888 2.44-2.424-4.92zM149.471 217.397l2.424 4.92-4.887 2.439-2.424-4.92zM162.99 210.647l2.424 4.92-4.888 2.439-2.424-4.919zM176.514 203.902l2.424 4.919-4.888 2.439-2.424-4.919zM130.706 238.614a63.71 63.71 0 0 0 3.176.278l-.737-1.496-2.44 1.218zM146.663 230.647l2.423 4.92-4.887 2.438-2.424-4.918zM160.184 223.898l2.424 4.92-4.887 2.44-2.425-4.92zM173.706 217.15l2.424 4.919-4.888 2.44-2.424-4.92zM187.23 210.404l-4.887 2.44 2.424 4.919 1-.5a64.875 64.875 0 0 0 3.019-3.703l-1.555-3.156z"/>
        </g>
        <g fill="#A1C3FC">
            <path d="M231.382 36.46l-7.486 3.912h9.452zM197.711 54.054h42.515l-3.62-7.201h-25.113zM171.527 67.736h75.576l-3.62-7.2h-58.175zM175.07 81.418h78.911l-3.62-7.2H171.45zM181.948 95.1h78.91l-3.62-7.2h-78.91zM188.825 108.783h56.747l13.78-7.201h-74.147zM195.703 122.464h23.684l13.782-7.2h-41.086zM200.63 132.266l6.355-3.32h-8.025z"/>
        </g>
        <path fill="#151A4F" d="M183.082 4.953c2.537-.594 5.14-1.192 7.723-.856 3.862.501 7.156 3.01 10.07 5.623 3.576 3.208 6.911 6.74 9.524 10.788 6.208 9.627 7.937 21.583 7.55 33.07-.388 11.488-2.72 22.81-3.96 34.236a180.746 180.746 0 0 0-.329 35.67A225.052 225.052 0 0 0 135 126c17.041-25.05 27.074-56.38 21.071-86.177-1.78-8.84-4.537-19.268 1.487-25.92 3.3-3.644 8.364-4.932 13.122-6.046l12.402-2.904z"/>
        <path fill="#F2A19C" d="M184.355 51.422c-.243.033-.492.07-.704.22-.66.467-.578 1.656-.421 2.577C186.048 70.735 184.91 88.254 180 104c9.2-7.134 21.39-.028 32-2.86-3.041-7.285-2.346-15.962-2.31-24.164.04-9.655 1.99-22.637.008-31.976-7.469 1.034-17.875 5.39-25.343 6.422z"/>
        <path fill="#FFBEB6" d="M166.183 23.805c-.816 8.317 1.172 15.532 4.417 23.26 3.77 8.982 10.644 17.192 20.02 20.344 9.375 3.152 19.057 1.96 23.645-6.65 1.892-3.553 2.8-9.375 2.731-13.38-.188-10.993-2.84-22.482-11.034-29.992-4.861-4.456-9.923-10.763-16.554-11.32-6.633-.556-15.973 2.345-19.77 7.702-3.11 4.385-2.932 4.72-3.455 10.036z"/>
        <path fill="#FFF" d="M204.013 51.46c-1.283 1.415-3.142 2.178-4.99 2.7-2.864.807-5.917 1.14-8.827.516-2.91-.624-5.662-2.285-7.196-4.806 1.757.271 3.552.303 5.319.095C196.829 48.957 203.647 42.614 209 36c-.306 3.448-.71 5.685-1.573 9.022-.501 1.937-2.065 4.948-3.414 6.438z"/>
        <path fill="#E94A47" d="M157.35 37.7c9.127-14.532 24.835-24.9 41.972-27.7L208 17.667c-19.34 2.612-35.382 16.18-47.365 31.333-2.403-3.333-4.894-7.64-2.921-11.238-.843 5.707 1.726-5.446-.365-.061z"/>
        <path fill="#23286B" d="M161.91 134c7.326-30.762 6.173-36.734 6.003-68.362-.038-7.036 3.02-35.364 8.055-43.952C183.028 9.642 189.382 7.644 196 5.319c-15.606-13.135-34.924 1.199-39.495 9.302-4.57 8.103-5.21 17.767-5.894 27.054a877.925 877.925 0 0 1-11.611 91.6c7.641-.23 15.296.013 22.91.725z"/>
        <path fill="#23286B" d="M172.726 57.484h-.003a.507.507 0 0 1-.506-.505c.072-10.758 2.341-20.883 7.358-32.829 3.165-7.532 10.103-15.615 14.193-17.81a.514.514 0 0 1 .689.2.499.499 0 0 1-.205.682c-3.86 2.07-10.702 10.085-13.738 17.313-4.965 11.82-7.21 21.829-7.28 32.45a.504.504 0 0 1-.508.499z"/>
        <path fill="#23286B" d="M176.624 53.4a.501.501 0 0 1-.486-.573c2.152-16.571 9.244-34.377 18.51-46.471a.48.48 0 0 1 .687-.082c.211.173.248.49.08.71-9.164 11.958-16.178 29.576-18.306 45.976a.495.495 0 0 1-.485.44zM132.825 131.866h-.03a.502.502 0 0 1-.463-.534c1.94-31.763 6.185-59.293 14.189-92.055l.19-.78c1.917-7.866 4.814-19.753 10.393-25.036a.49.49 0 0 1 .699.025.51.51 0 0 1-.025.71c-5.364 5.08-8.219 16.792-10.106 24.542l-.19.78c-7.99 32.7-12.227 60.177-14.163 91.875a.499.499 0 0 1-.494.473z"/>
        <path fill="#FFF" d="M218 84.01c-.302 5.62-.606 11.237-.91 16.857-.012.24-.05.52-.265.635-.134.073-.299.055-.453.034-5.999-.78-9.48 26.542-15.53 26.464-6.408-.082-15.388-27.524-21.755-26.82l.046-10.175c.005-1.206-.133-4.365-.133-4.365s1.598-1.497 2.727-2.004c3.875-1.74 7.795 4.387 11.862 3.128 2.177-.673 3.36-3.281 5.602-3.703 3.15-.595 5.195 3.36 8.259 4.289 1.888.571 3.951-.1 5.641-1.098 1.69-.999 3.17-2.321 4.909-3.241z"/>
        <path fill="url(#a)" d="M202.191 122.674L217.511 97a125.566 125.566 0 0 1 31.787 11.866c5.24 2.815 10.35 6.06 14.351 10.472 5.86 6.46 8.943 14.964 11.143 23.417 6.43 24.705 5.11 64.487-1.375 89.176-8.083-1.333-15.186-2.748-23.316-1.734-9.142 1.143-20.173 3.268-29.362 2.602-32.8-2.38-52.854-3.297-84.632 5.201-1.372-18.258-12.978-48.511-12.055-66.798.906-17.923 3.25-36.705 13.72-51.25 8.99-12.485 42.431-22.088 42.431-22.088s16.503 18.031 21.988 24.81z"/>
        <path fill="url(#b)" d="M85.84 85.944c-2.514-9.933-6.6-10.328-13.963-17.634-1.189-1.18-2.476-3.034-3.808-2.015-1.3 3.636 7.87 9.824 8.67 18.32-11.997-6.884-29.856-10.218-40.659-9.503-3.808.252 2.793 3.274 11.425 4.535 7.88 1.15 12.694 4.283 19.766 7.905.417 1.199-4.305-.807-5.548-1.102-11.782-2.806-20.057-5.038-32.604-5.98-3.701.437 2.68 6.684 6.073 7.994 8.435 3.255 17.897 5.693 26.332 8.948-2.213 4.025-24.428-9.577-20.056-4.188 7.773 8.67 19.6 13.603 31.28 13.043 1.926-.091 3.924-.314 5.727.36 2.12.791 4.099 2.847 4.702 5.012 8.66 31.129 18.168 60.585 25.516 80.361 2.159-2.98 9.875-30.646 13.307-32.016-6.635-17.83-18.834-27.157-25.24-45.07-2.793-7.81-6.323-13.588-8.632-19.397-.498-1.243-2.753-10.827-2.287-9.573z"/>
        <path fill="url(#c)" d="M96.845 111c14.484 22.324 16.332 31.514 30.012 56.243 7.086 12.808 17.504 30.019 20.02 44.444.65 3.73-1.344 24.425-4.337 26.735-2.369 1.828-8.749-1.108-11.19-2.836-2.443-1.728-4.03-4.39-5.53-6.98A858.866 858.866 0 0 1 73 120.576 48.534 48.534 0 0 0 96.845 111z"/>
        <circle cx="239.5" cy="46.5" r="4.5" fill="#D9E021"/>
        <path fill="#E94A47" d="M36.947 55L26 49.946 31.053 39 42 44.053z"/>
        <path fill="#1D72D8" d="M75.947 39L65 33.946 70.053 23 81 28.053z"/>
        <path fill="#23286B" d="M56.907 43.612a.517.517 0 0 1-.434-.23C48.98 32.01 33.309 26.476 20.023 30.506a.515.515 0 0 1-.643-.326.496.496 0 0 1 .337-.625c13.714-4.163 29.89 1.554 37.624 13.292a.49.49 0 0 1-.156.688.547.547 0 0 1-.279.078zM4.196 90.395l-.034-.001a.52.52 0 0 1-.485-.55c.664-10.437 10.048-19.75 20.494-20.337a.51.51 0 0 1 .548.49.52.52 0 0 1-.49.547c-9.946.56-18.883 9.428-19.516 19.364a.517.517 0 0 1-.517.487z"/>
        <path fill="#EEE" d="M116 232h170v9H116z"/>
        <path fill="#23286B" d="M198.73 26.888a.484.484 0 0 1-.488-.462.487.487 0 0 1 .472-.497c6.485-.22 12.45-5.752 13.022-12.082.024-.263.273-.449.531-.435.27.023.469.257.444.52-.626 6.906-6.889 12.717-13.962 12.956h-.019z"/>
        <path fill="url(#d)" d="M143 136h143v104H143z"/>
        <path fill="#FFF" d="M204 181h22v22h-22z"/>
        <path fill="url(#e)" d="M261.858 209.864c2.563 4.64 21.377-6.627 24.92-10.517-.106 5.196-7.542 8.822-8.209 10.805-.585 1.74 3.483.423 4.979-.576 7.351-4.91 10.633-15.355 10.444-24.477-.062-3.042-1.045-4.601-1.967-7.464-2.95-9.16-3.278-29.516-5.324-24.986-2.195 6.015-4.172 16.226-1.234 21.594-10.64 7.827-17.261 16.152-24.327 27.51-1.029 1.655-1.842 4.234-.22 5.261l15.178-14.822c3.19-3.116 6.254-7.192 9.696-4.379-4.559 5.488-25.247 19.675-23.936 22.05z"/>
        <path fill="#FFF" d="M155.282 177.624c.076.28.305.458.586.383.282-.075.462-.302.386-.582-.076-.28-.305-.457-.586-.383-.282.076-.462.303-.386.582zm18.778 44.71c-.18.227-.104.506.126.685.229.179.51.103.69-.124.18-.228.105-.508-.125-.686-.203-.305-.51-.104-.69.124zm6.43-10.584c-.18.228-.105.507.125.686.229.178.51.103.69-.125.18-.227.105-.507-.125-.685-.102-.153-.51-.104-.69.124zm-21.832-11.005c.23.179.485.23.767.155a.818.818 0 0 0 .155-.76c-.23-.18-.484-.23-.64-.13-.433.177-.486.431-.282.735zm10.152-7.323c.23.178.484.23.766.154a.818.818 0 0 0 .156-.76c-.23-.179-.485-.23-.64-.13-.434.177-.512.557-.282.736zm30.176 31.96c-.051.254.152.559.407.61.256.051.564-.15.615-.403.052-.254-.152-.56-.407-.61-.256-.053-.562.149-.615.403zm1.984-12.272c-.052.254.152.559.407.61.256.051.563-.15.615-.403.052-.254-.152-.56-.407-.61-.255-.053-.564.15-.615.403zm-49.184-22.331c.102.152.46.356.64.13.153-.102.36-.457.13-.635-.102-.152-.46-.357-.64-.13-.282.076-.334.33-.13.635zm9.558-5.727c.102.152.46.356.64.13.153-.102.333-.33.13-.635-.102-.153-.332-.33-.64-.13-.18.23-.232.482-.13.635zm27.793 33.194c-.052.254.024.533.28.584.256.052.41-.049.589-.277.051-.254-.025-.533-.28-.584-.256-.051-.537.024-.589.277zm2.72-10.67c-.051.253.025.532.28.583.257.051.41-.049.59-.277.05-.254-.025-.533-.281-.584-.255-.05-.536.024-.589.277zm-21.544-4.611c-.18.228-.104.507.125.686.23.178.511.103.691-.125.18-.227.104-.507-.125-.685-.229-.18-.511-.104-.691.124zm-24.213-1.981c-.18.227-.104.507.125.685.23.18.511.104.691-.124.18-.228.104-.507-.125-.686-.23-.178-.511-.102-.691.125zm7.681-10.199c-.18.228-.104.508.125.686.23.179.511.103.691-.124.18-.228.104-.507-.125-.686-.23-.179-.511-.103-.691.124zm7.579-10.35c-.18.228-.104.508.125.686.23.179.51.104.69-.124.18-.228.105-.507-.124-.686a.993.993 0 0 0-.691.125zm37.1 33.885c.076.28.305.457.586.382.282-.075.462-.302.386-.581-.076-.28-.305-.458-.586-.383-.256-.053-.462.301-.386.582zM154.482 164c-.308.203-.36.456-.155.76m17.2 42.014c-.051.254.152.559.407.61.255.051.563-.15.615-.403.051-.253-.152-.56-.407-.61-.255-.052-.562.149-.615.403zm-8.797.073c-.052.254.152.56.406.61.256.052.563-.15.615-.403.052-.254-.024-.533-.406-.61-.255-.052-.562.15-.615.403zm3.57-12.215c-.052.253.151.559.406.61.256.051.537-.024.615-.403.052-.254-.152-.56-.381-.738-.28.075-.589.277-.64.53zm-15.855-16.135c-.18.228-.104.508.125.686.23.179.511.103.82-.1.18-.227.103-.506-.1-.812-.384-.077-.665-.003-.845.226zm5.042-1.227c-.052.254.05.406.152.56.255.05.409-.05.563-.152.052-.253-.05-.405-.152-.559-.255-.05-.537.024-.563.151z"/>
    </g>
</svg>
