<svg xmlns="http://www.w3.org/2000/svg" width="199" height="296" viewBox="0 0 199 296">
    <defs>
        <linearGradient id="a" x1="70.598%" x2="37.811%" y1="109.536%" y2="-11.626%">
            <stop offset="0%" stop-color="#FFBEB6"/>
            <stop offset="100%" stop-color="#F2A19C"/>
        </linearGradient>
        <linearGradient id="b" x1="0%" y1="49.999%" y2="49.999%">
            <stop offset="0%" stop-color="#23286B"/>
            <stop offset="100%" stop-color="#151A4F"/>
        </linearGradient>
        <linearGradient id="c" x1="35.809%" x2="48.642%" y1="83.361%" y2="50.482%">
            <stop offset="0%" stop-color="#A1C3FC"/>
            <stop offset="74.73%" stop-color="#81AEF2"/>
            <stop offset="100%" stop-color="#78A9EF"/>
        </linearGradient>
        <linearGradient id="d" x1="-82.416%" x2="17.585%" y1="50%" y2="50%">
            <stop offset="0%" stop-color="#23286B"/>
            <stop offset="55.97%" stop-color="#1B205B"/>
            <stop offset="100%" stop-color="#151A4F"/>
        </linearGradient>
        <linearGradient id="e" x1="31.424%" x2="66.181%" y1="25.01%" y2="103.006%">
            <stop offset="0%" stop-color="#23286B"/>
            <stop offset="100%" stop-color="#151A4F"/>
        </linearGradient>
        <linearGradient id="f" x1="50.002%" x2="50.002%" y1="84.846%" y2="-12.84%">
            <stop offset="0%" stop-color="#FFBEB6"/>
            <stop offset="100%" stop-color="#F2A19C"/>
        </linearGradient>
    </defs>
    <g fill="none" fill-rule="nonzero">
        <g transform="translate(.043 .762)">
            <path fill="#A1C3FC" d="M77.539 120.91l-.745-.148c1.157-5.847 2.603-10.648 4.002-15.29 2.58-8.569 5.019-16.663 4.872-29.485l.76-.01c.149 12.94-2.306 21.088-4.903 29.714-1.395 4.625-2.835 9.407-3.986 15.218z"/>
            <path fill="#EEE" d="M.148 207.819h90.421v3.799H.148z"/>
            <path fill="#A1C3FC" d="M150.607 158.394l.028-4.75a15.376 15.376 0 0 0 2.018-.472 20.735 20.735 0 0 1-2.015-.247c.001-.68-.01-1.376-.06-2.063a18 18 0 0 0 1.75-1.02l-1.814.373a9.673 9.673 0 0 0-.434-2.02c.487-.228.935-.54 1.315-.92a24.499 24.499 0 0 1-1.813-.175 4.983 4.983 0 0 0-.58-.814c-.348-.393-.785-.734-1.285-.785-.792-.08-1.421.55-1.862 1.317-.024-.04-.045-.082-.071-.121-.39-.574-1.015-.949-1.656-1.214l1.282 2.317c-.152.406-.286.82-.406 1.242-.718.249-1.43.514-2.129.814.605.162 1.222.274 1.843.34-.198.938-.33 1.903-.407 2.886a22.62 22.62 0 0 1-1.962.096c.624.262 1.262.488 1.91.684a36.818 36.818 0 0 0-.03 2.871 6.775 6.775 0 0 0-2.551-.287 10.59 10.59 0 0 0 2.591 1.333c.104 2.157.337 4.306.544 6.324 1.535-.914 4.141.41 5.763-.302.01-1.64.02-3.28.028-4.918.583.027 1.161.111 1.724.262a41.919 41.919 0 0 0-1.72-.751z"/>
            <path fill="#DFEBFE" d="M115.45 83.015c-.547-.687-1.147-1.362-1.44-2.19-.626-1.758.265-3.645.9-5.4.636-1.753.887-4.035-.572-5.198-1.218-.97-3.33-.867-3.928-2.305-.222-.534-.148-1.14-.227-1.713-.341-2.464-3.53-3.635-5.883-2.828-2.353.806-4.001 2.883-5.513 4.859-.55.72-1.064 1.854-.35 2.412.68.53 1.851-.093 2.463.515.49.487.174 1.339-.29 1.85-.466.51-1.086.962-1.211 1.642-.238 1.298 1.404 2.07 2.712 2.245 1.308.174 2.967.513 3.208 1.809-1.754 2.078-3.626 4.708-2.74 7.281 1.024 2.974 4.667 4.253 7.437 5.745 5.147 2.77 7.2 8.462 8.312 14.2 3.319-7.388 2.165-16.586-2.878-22.924z"/>
            <path fill="#CFE0FD" d="M116.287 30.903a13.237 13.237 0 0 0-.095 1.52c0 7.273 5.897 13.17 13.17 13.17 7.274 0 13.17-5.897 13.17-13.17 0-.515-.036-1.021-.094-1.52h-26.151z"/>
            <g fill="#A1C3FC">
                <path d="M89.535 6.316l.114-6.284L89.493 0l-2.466 5.78z"/>
                <path d="M89.571 6.165l-8.116 37.939-2.507-.537L87.064 5.63zM88.34 2.701l1.255.269.054-2.938L89.493 0z"/>
            </g>
            <g fill="#A1C3FC">
                <path d="M81.66 13.042L80.247 8.14l-.129.012-.532 5.072z"/>
                <path d="M81.645 12.918l2.77 31.366-2.072.184L79.572 13.1zM79.87 10.524l1.038-.092-.66-2.291-.13.012z"/>
            </g>
            <path fill="#A1C3FC" d="M63.093 79.552h8.53v41.584h-8.53zM79.212 183.417h4.984v24.297h-4.984zM72.626 183.417h4.984v24.297h-4.984zM66.041 183.417h4.984v24.297h-4.984zM59.455 183.417h4.984v24.297h-4.984z"/>
            <path fill="#A1C3FC" d="M52.364 207.878l-4.728-1.577 7.688-23.047 4.728 1.577z"/>
            <path fill="#BFD6FD" d="M54.372 121.2l-4.693-1.171 8.503-34.077 4.692 1.17z"/>
            <path fill="#A1C3FC" d="M45.734 120.93l-4.555-1.624 11.789-33.082 4.555 1.623zM95.376 250.009h8.53v41.584h-8.53zM104.13 257.578l4.693-1.17 8.502 34.076-4.692 1.171zM109.488 258.298l4.555-1.624 11.79 33.082-4.556 1.624zM129.587 121.39h-22.298l-3.899-25.992h30.094zM140.51 45.912h-22.296l-3.899-3.702h30.095z"/>
            <path fill="#CEE0FD" d="M106.716 231.252h42.741v8.263h-42.741z"/>
            <path fill="#A1C3FC" d="M100.446 222.989h42.741v8.263h-42.741zM48.968 165.905h42.741v8.263H48.968z"/>
            <path fill="#D6D7D8" d="M42.698 157.643h42.741v8.263H42.698z"/>
            <path fill="#A1C3FC" d="M53.336 149.284h34.382v8.263H53.336z"/>
            <g fill="#A1C3FC">
                <path d="M118.114 99.428c-.082-4.937.192-9.88.814-14.778M118.114 99.808a.38.38 0 0 1-.38-.374c-.082-4.927.192-9.918.816-14.832a.38.38 0 0 1 .755.095 103.56 103.56 0 0 0-.81 14.723.38.38 0 0 1-.374.387h-.007z"/>
            </g>
            <ellipse cx="119.064" cy="84.169" fill="#A1C3FC" rx="1" ry="2.518" transform="rotate(96.979 119.064 84.169)"/>
            <g fill="#A1C3FC">
                <path d="M119.004 84.057c.367-2.771.846-5.528 1.435-8.26M119.005 84.436c-.017 0-.034 0-.05-.003a.382.382 0 0 1-.328-.427c.368-2.774.853-5.563 1.44-8.292a.383.383 0 0 1 .453-.291.381.381 0 0 1 .291.452 104.682 104.682 0 0 0-1.43 8.231.38.38 0 0 1-.376.33z"/>
            </g>
            <ellipse cx="120.579" cy="75.184" fill="#A1C3FC" rx="1.134" ry="3.034" transform="rotate(91.387 120.58 75.184)"/>
            <g fill="#A1C3FC">
                <path d="M120.597 75.077a104.843 104.843 0 0 1 1.729-6.71M120.597 75.458a.381.381 0 0 1-.37-.463 105.223 105.223 0 0 1 1.736-6.735.38.38 0 0 1 .728.213 104.693 104.693 0 0 0-1.723 6.686.38.38 0 0 1-.371.299z"/>
            </g>
            <ellipse cx="122.733" cy="67.709" fill="#A1C3FC" rx="1.134" ry="3.034" transform="rotate(109.287 122.733 67.709)"/>
            <g fill="#A1C3FC">
                <path d="M122.6 67.451c.51-1.681 1.062-3.35 1.659-5.004M122.6 67.831a.38.38 0 0 1-.364-.49 105.522 105.522 0 0 1 1.664-5.022.38.38 0 0 1 .716.257 102.953 102.953 0 0 0-1.653 4.986.38.38 0 0 1-.363.27z"/>
            </g>
            <ellipse cx="124.588" cy="61.587" fill="#A1C3FC" rx="1.521" ry="4.069" transform="rotate(109.287 124.588 61.587)"/>
            <g fill="#A1C3FC">
                <path d="M124.668 61.327c.41-1.097.838-2.188 1.284-3.27M124.668 61.707a.38.38 0 0 1-.356-.513c.409-1.095.842-2.2 1.288-3.282a.377.377 0 0 1 .495-.206.378.378 0 0 1 .206.495 107.59 107.59 0 0 0-1.279 3.259.374.374 0 0 1-.354.247z"/>
            </g>
            <path fill="#EEE" d="M77.272 124.996H21.043V68.768h56.229v56.228zm-52.43-3.8h48.63v-48.63h-48.63v48.63z"/>
            <path fill="#D6D7D8" d="M154.052 49.771h-49.389V.382h49.39v49.39zm-45.59-3.799h41.792V4.182h-41.792v41.79zM161.613 177.425H15.723v-56.228h145.89v56.228zm-142.09-3.8h138.292v-48.63H19.524v48.63zM161.613 295.2H15.723v-56.228h145.89V295.2zm-142.09-3.8h138.292v-48.629H19.524v48.63z"/>
            <path fill="#D6D7D8" d="M87.908 48.632h3.799v75.224h-3.799zM87.908 175.525h3.799V293.3h-3.799z"/>
            <path fill="#EEE" d="M62.455 45.972h107.138v3.799H62.455zM141.824 162.195h11.464v11.464h-11.464z"/>
            <path fill="#A1C3FC" d="M54.3 238.911H35.5l-3.287-3.121h25.372z"/>
            <path fill="#A1C3FC" d="M33.876 226.257c-.048.42-.08.847-.08 1.28 0 6.134 4.973 11.105 11.104 11.105 6.133 0 11.104-4.972 11.104-11.104 0-.434-.031-.86-.08-1.281H33.876zM36.366 265.796h31.711v25.986H36.366z"/>
            <path fill="#A1C3FC" d="M45.457 267.599l-3.405-3.405 3.405-3.405 3.404 3.405zM59.01 267.598l-3.405-3.405 3.404-3.405 3.405 3.405z"/>
            <path fill="#A1C3FC" d="M46.535 263.41h-3.039c0-3.514.1-7.145 1.3-9.545 1.288-2.575 4.635-5.276 7.88-5.145 3.92.156 6.992 3.849 7.618 6.34.643 2.563.359 7.178.296 8.078l-3.032-.215c.174-2.439.174-5.587-.211-7.12-.332-1.32-2.323-3.946-4.793-4.045-1.702-.041-4.098 1.585-5.038 3.467-.98 1.958-.98 5.856-.98 8.185zM73.852 22.544h15.197v23.808H73.852zM81.839 120.935l-.734-.198c5.5-20.374 7.263-37.008 5.713-53.932l.757-.07c1.56 17.02-.21 33.735-5.736 54.2z"/>
            <path fill="#A1C3FC" d="M79.565 120.91l-.745-.148c.722-3.643 1.508-7.244 2.27-10.726 2.835-12.975 5.514-25.23 5.336-40.635l.76-.01c.178 15.492-2.509 27.788-5.354 40.806-.76 3.48-1.547 7.076-2.267 10.712z"/>
        </g>
        <path fill="#FFBEB5" d="M133.954 133.817c-4.237-.806-17.023-4.71-18.928-5.473-1.906-.763-8.002.572-10.288 1.334-2.287.763-5.715 0-7.811-1.525-2.095-1.525-9.144-6.101-9.144-6.101s3.415-1.864 8.282.576c.526.264 1.068.577 1.625.948 5.715 3.814 9.144.763 8.382.38-.762-.38-4.19-.762-5.525-.762-1.334 0-3.688.221-4.117-1.926 0 0 14.437-.835 19.112-.096 4.734 1.852 16.35.203 16.35.203s11.55 1.697 11.453 4.436c-.317 8.928-5.05 8.831-9.391 8.006z"/>
        <path fill="url(#a)" d="M60.56 24.603s3.405 5.394 3.157 9.71c0 0 4.81 2.076 7.961-4.399l-2.985-6.308-8.133.997" transform="translate(87.783 51.535)"/>
        <path fill="#FFBEB6" d="M144.415 58.407s-3.126 5.474-5.359 7.039c-2.233 1.564-.614 2.513.893 2.737 0 0 3.294 12.091 16.527 6.959l4.06-7.868-2.16-7.351-8.728 2.162-5.233-3.678z"/>
        <path fill="url(#b)" d="M70.077 223.38H54.415s-8.175 7.68-16.933 11.437c-8.757 3.756-11.385 8.827-11.385 8.827l51.237-.001-7.257-20.262" transform="translate(87.783 51.535)"/>
        <path fill="#28306D" d="M191.525 274.916h-16.654s-7.182 7.679-15.94 11.436c-8.759 3.756-11.386 8.828-11.386 8.828l51.237-.002-7.257-20.262"/>
        <path fill="url(#c)" d="M89.64 104.862c-5.567 24.457-4.627 20.771-7.5 42.244-2.276 17.02-1.003 9.883-1.86 27.892-.859 18.014 1.37 37.004-10.203 48.37l-15.666.012s.478-46.613.741-62.14c.216-13.475 1.587-29.252 2.61-39.177a24.07 24.07 0 0 1 .233-1.699c1.237-7.033 1.575-9.463 2.178-13.534.064-.408 3.668-22.669 3.726-23.03 5.925 3.034 4.812 3.805 12.776 4.748 0 0 7.374 1.477 11.565-.211a47.36 47.36 0 0 1 1.255-.473 16.414 16.414 0 0 0 2.247-1.016c.11 4.637-.402 10.555-2.101 18.014z" transform="translate(87.783 51.535)"/>
        <path fill="#A1C3FC" d="M189.337 242.203c-3.776-10.053-7.132-6.836-6.368-14.985.76-8.148-1.02-13.423-4.33-22.039-3.304-8.627-10.944-12.699-.765-41.204 3.794-10.614 5.009-18.862 5.044-25.041a78.9 78.9 0 0 1-7.243.368c-.693.279.643-.33 0 0l-25.937-2.904-2.977 20.34c-.246 1.425-.485 2.879-.701 4.357-1.78 12.226-2.796 27.074-1.53 39.527 1.279 12.46 30.342 74.294 30.342 74.294h16.654s1.38-23.214-2.19-32.713z"/>
        <path fill="#FFF" d="M165.107 155.965a.104.104 0 0 0-.135-.056l-.002.001a.107.107 0 0 0-.055.138.104.104 0 0 0 .135.056h.002a.107.107 0 0 0 .055-.139zm-.979-2.377a.098.098 0 0 0-.125-.06c-.004.001-.008.002-.011.005a.108.108 0 0 0-.062.137.113.113 0 0 0 .143.056.105.105 0 0 0 .055-.138zm-.978-2.378a.108.108 0 0 0-.138-.066.108.108 0 0 0-.062.148.104.104 0 0 0 .135.056h.002a.108.108 0 0 0 .063-.138zm-.984-2.386a.104.104 0 0 0-.136-.056h-.001a.114.114 0 0 0-.056.146.105.105 0 0 0 .136.056h.001a.115.115 0 0 0 .056-.146zm-7.86 7.128a.102.102 0 0 0-.132.062.1.1 0 0 0 .041.134l.012.005a.107.107 0 0 0 .138-.06.11.11 0 0 0-.06-.141zm14.42-4.174a.098.098 0 0 0-.145.002.1.1 0 0 0-.006.14l.007.007c.036.04.097.042.137.007l.008-.009a.1.1 0 0 0 .006-.14l-.007-.007zm-1.807-1.82a.103.103 0 0 0-.145.002.118.118 0 0 0-.03.062.105.105 0 0 0 .03.092c.006.006.012.01.02.01l.008.001c.037.025.086.02.117-.013a.107.107 0 0 0 .002-.15c.001-.003 0-.004-.002-.004zm-7.248 5.678a.11.11 0 0 0-.002.219c.06 0 .11-.05.11-.11a.108.108 0 0 0-.108-.11zm-.004-2.579a.112.112 0 0 0-.109.109.101.101 0 0 0 .1.103h.01a.105.105 0 0 0 .107-.102.116.116 0 0 0-.108-.11zm15.618.177a.194.194 0 0 0-.277.02.202.202 0 0 0 .018.287.198.198 0 0 0 .28-.014l.005-.005a.212.212 0 0 0-.026-.288zm-3.645-3.2a.203.203 0 0 0-.285.02.208.208 0 0 0 .019.288.202.202 0 0 0 .286-.021.204.204 0 0 0-.02-.286zm-7.435 18.776a.206.206 0 0 0-.189.215.193.193 0 0 0 .213.183.205.205 0 0 0 .188-.215.199.199 0 0 0-.212-.183zm-.336-4.88a.201.201 0 0 0-.183.214.2.2 0 1 0 .401-.022v-.002a.214.214 0 0 0-.218-.19zm-.33-4.88a.215.215 0 0 0-.189.222.193.193 0 0 0 .213.182.199.199 0 0 0 .189-.208v-.007a.202.202 0 0 0-.213-.19zm-.337-4.875a.2.2 0 1 0 .002 0h-.002zm-.328-4.88a.199.199 0 0 0-.182.215.198.198 0 0 0 .395-.014.204.204 0 0 0-.213-.202zm10.839 14.632a.197.197 0 0 0-.264-.091l-.006.003a.203.203 0 0 0-.097.27l.001.002a.197.197 0 0 0 .262.092l.009-.004a.21.21 0 0 0 .095-.272zm-2.154-4.373a.198.198 0 0 0-.263-.093c-.003.002-.004.003-.007.003a.203.203 0 0 0-.096.27l.001.002a.197.197 0 0 0 .262.092l.008-.004a.208.208 0 0 0 .095-.27zm-2.155-4.374a.21.21 0 0 0-.276-.09.208.208 0 0 0-.089.273c.05.1.169.142.269.096a.219.219 0 0 0 .096-.279zm-2.162-4.367a.204.204 0 0 0-.268-.096.209.209 0 0 0-.089.272.197.197 0 0 0 .262.092c.003 0 .006-.002.008-.003a.192.192 0 0 0 .087-.265zm-12.11 14.506a.193.193 0 0 0-.25.134.197.197 0 0 0 .125.25.202.202 0 0 0 .256-.124.215.215 0 0 0-.13-.26zm1.544-4.635a.2.2 0 0 0-.254.12l-.002.004a.204.204 0 0 0 .124.258.213.213 0 0 0 .256-.132.197.197 0 0 0-.124-.25zm1.538-4.644a.203.203 0 0 0-.256.125.2.2 0 0 0 .12.257l.01.002c.099.036.209-.016.245-.116l.003-.01a.202.202 0 0 0-.122-.258zm1.538-4.643a.203.203 0 0 0-.25.133.195.195 0 0 0 .125.25.202.202 0 0 0 .255-.124.21.21 0 0 0-.13-.26zm15.828 6.596a.18.18 0 0 0-.245-.063.185.185 0 0 0-.057.254.18.18 0 0 0 .247.055.178.178 0 0 0 .055-.246zm-2.283-3.705a.123.123 0 0 0-.07-.068l-.007-.001a.177.177 0 0 0-.168.013.185.185 0 0 0-.058.254.179.179 0 0 0 .246.056.15.15 0 0 0 .072-.107.152.152 0 0 0-.015-.147zm-2.283-3.698a.178.178 0 0 0-.246-.056.193.193 0 0 0-.057.255.181.181 0 0 0 .251.052.18.18 0 0 0 .052-.25zm-11.19 14.072a.178.178 0 0 0-.213.135l-.001.003a.173.173 0 0 0 .122.213l.007.002a.182.182 0 1 0 .088-.352l-.003-.001zm.978-4.254a.178.178 0 0 0-.213.135l-.001.003a.173.173 0 0 0 .129.215.178.178 0 0 0 .213-.131.182.182 0 0 0-.128-.222zm.978-4.253a.177.177 0 0 0-.213.135l-.001.003a.17.17 0 0 0 .13.215.178.178 0 0 0 .213-.135l.001-.003a.183.183 0 0 0-.13-.215zm.971-4.255a.187.187 0 0 0-.214.138.18.18 0 0 0 .35.085.19.19 0 0 0-.136-.223zm6.26 10.82a.19.19 0 0 0-.145.214c.016.097.107.161.203.145h.001a.183.183 0 0 0 .15-.205.186.186 0 0 0-.209-.154zm-.704-4.303a.19.19 0 0 0-.146.214c.017.096.108.16.204.145a.173.173 0 0 0 .147-.197l-.002-.009a.181.181 0 0 0-.203-.153zm-.706-4.297a.173.173 0 0 0-.146.197l.002.008c.016.097.107.161.203.146a.18.18 0 0 0 .145-.206.17.17 0 0 0-.192-.147l-.012.002zm-.705-4.304a.183.183 0 0 0-.15.205.202.202 0 0 0 .05.102l.007.001a.17.17 0 0 0 .153.043.18.18 0 0 0 .144-.206.177.177 0 0 0-.202-.145h-.002zm-13.872 9.34a.183.183 0 0 0-.251.038.18.18 0 0 0 .044.254.167.167 0 0 0 .236-.029l.008-.01a.178.178 0 0 0-.037-.253zm2.507-3.56a.175.175 0 0 0-.244.046.178.178 0 1 0 .282.218l.007-.009a.178.178 0 0 0-.038-.25.016.016 0 0 0-.007-.005zm20.283-6.503a.11.11 0 0 0-.15-.006.113.113 0 0 0-.007.153.11.11 0 0 0 .15.006.113.113 0 0 0 .007-.153zm-8.387 5.66a.105.105 0 0 0-.11.1.105.105 0 0 0 .1.11.105.105 0 0 0 .11-.1v-.001a.103.103 0 0 0-.1-.109zm.088-2.573a.1.1 0 0 0-.108.094v.008a.105.105 0 0 0 .1.109.11.11 0 0 0 .116-.1.108.108 0 0 0-.105-.11l-.003-.001zm.096-2.572a.1.1 0 0 0-.108.094v.008a.105.105 0 0 0 .102.107.105.105 0 0 0 .006-.21zm4.925 2.975a.1.1 0 0 0-.124-.066c-.004 0-.008.002-.01.004a.104.104 0 0 0-.065.132l.002.005a.114.114 0 0 0 .136.063.11.11 0 0 0 .061-.138zm-.893-2.416a.101.101 0 0 0-.137-.056.11.11 0 0 0-.062.137.114.114 0 0 0 .136.063.108.108 0 0 0 .066-.139l-.003-.005zm-8.907 2.11a.097.097 0 0 0-.132.04l-.006.013a.104.104 0 0 0 .05.138l.002.001a.102.102 0 0 0 .136-.05l.002-.004a.104.104 0 0 0-.05-.138h-.002zm1.06-2.343a.097.097 0 0 0-.132.04l-.006.014a.103.103 0 0 0 .046.137.11.11 0 0 0 .145-.053.104.104 0 0 0-.05-.137h-.003zm3.472 5.702a.132.132 0 0 0-.143.097.12.12 0 0 0 .088.144.112.112 0 0 0 .142-.09.122.122 0 0 0-.087-.15zm.628-2.87a.132.132 0 0 0-.144.096.12.12 0 0 0 .09.144.122.122 0 0 0 .148-.087l.001-.002a.134.134 0 0 0-.095-.151zm.629-2.871a.132.132 0 0 0-.144.096.12.12 0 0 0 .089.144.114.114 0 0 0 .143-.096.121.121 0 0 0-.088-.144zm4.84 4.424a.117.117 0 0 0-.133-.1l-.006.002-.007-.002a.125.125 0 0 0-.091.141c.008.065.068.11.132.1h.006a.152.152 0 0 0 .046-.024.11.11 0 0 0 .053-.117zm-.647-2.996a.133.133 0 0 0-.1.146c.018.065.081.105.147.094a.118.118 0 0 0 .091-.14v-.001a.121.121 0 0 0-.138-.1zm-10.289.605a.113.113 0 0 0-.158.028c-.003.002-.004.006-.006.008a.12.12 0 1 0 .197.137.124.124 0 0 0-.033-.173zm1.67-2.412a.124.124 0 0 0-.171.035.116.116 0 0 0 .029.161l.006.004a.11.11 0 0 0 .162-.029.122.122 0 0 0-.026-.171zm12.02 6.93a.206.206 0 0 0-.178.232.206.206 0 0 0 .232.178h.005a.213.213 0 0 0 .177-.239.207.207 0 0 0-.236-.17zm-.77-4.978a.208.208 0 1 0 .065.411.209.209 0 0 0 .17-.239.203.203 0 0 0-.23-.172h-.006zm-17.938 10.019a.203.203 0 0 0-.284.04l-.005.007a.206.206 0 0 0 .04.29.21.21 0 0 0 .25-.336l-.001-.001zm2.94-4.077a.203.203 0 0 0-.284.04l-.005.008a.207.207 0 0 0 .334.244.212.212 0 0 0-.046-.292zm2.939-4.077a.202.202 0 0 0-.283.035l-.005.006a.22.22 0 0 0 .046.299.208.208 0 0 0 .242-.34zm2.94-4.077a.202.202 0 0 0-.282.034l-.005.006a.223.223 0 0 0 .046.299.206.206 0 0 0 .288-.048.2.2 0 0 0-.034-.281l-.013-.01zm1.707 14.5a.203.203 0 0 0-.245.151l-.001.004a.21.21 0 0 0 .145.254.222.222 0 0 0 .253-.155.21.21 0 0 0-.152-.255zm1.175-4.899a.199.199 0 0 0-.245.156.204.204 0 0 0 .146.247.209.209 0 0 0 .252-.154v-.001a.2.2 0 0 0-.14-.245l-.013-.003zm1.177-4.905a.207.207 0 0 0-.245.156.21.21 0 0 0 .153.255.202.202 0 0 0 .244-.152v-.004a.211.211 0 0 0-.152-.255zm.659 11.425a.21.21 0 1 0 .16.25v-.001a.21.21 0 0 0-.16-.249zm.97-4.927a.22.22 0 0 0-.248.17.213.213 0 0 0 .161.242.21.21 0 0 0 .247-.163.214.214 0 0 0-.16-.249zm.962-4.92a.207.207 0 0 0-.077.405.21.21 0 0 0 .246-.163.215.215 0 0 0-.169-.242zm.97-4.926a.203.203 0 0 0-.238.158l-.001.006c-.02.11.051.219.16.241a.198.198 0 0 0 .24-.164.204.204 0 0 0-.16-.241zm-11.897-2.43a.195.195 0 0 0-.282-.052.207.207 0 0 0 .223.347.207.207 0 0 0 .064-.285l-.005-.01zm.73 10.961a.198.198 0 0 0-.277.054l-.006.01a.207.207 0 0 0 .344.23.208.208 0 0 0-.062-.294zm2.759-4.182a.198.198 0 0 0-.276.053l-.007.01a.207.207 0 0 0 .06.287.206.206 0 0 0 .284-.057.21.21 0 0 0-.057-.29l-.004-.003zm2.759-4.182a.208.208 0 0 0-.229.348.208.208 0 1 0 .229-.348zm2.733 5.986a.148.148 0 0 0-.2.066c-.002.005-.005.01-.006.016a.157.157 0 0 0 .08.202.153.153 0 0 0 .204-.075l.002-.007a.157.157 0 0 0-.08-.202zm1.478-3.483a.153.153 0 0 0-.204.075l-.002.006a.161.161 0 0 0 .08.208c.078.033.17-.002.205-.081a.16.16 0 0 0-.08-.208zm1.479-3.482a.158.158 0 0 0-.206.08.161.161 0 0 0 .08.209c.079.033.17-.002.205-.081a.161.161 0 0 0-.08-.208zm-8.19 1.092a.147.147 0 0 0-.209-.012l-.006.005a.156.156 0 0 0-.01.22l.008.007a.15.15 0 0 0 .218 0 .153.153 0 0 0 0-.22z" opacity=".86"/>
        <path fill="url(#d)" d="M63.717 34.313S70.28 50.21 42.18 69.723c0 0 10.036 15.784 17.777 16.071 0 0 20.444-14.529 10.731-57.369l-6.971 5.888z" transform="translate(87.783 51.535)"/>
        <path fill="url(#e)" d="M63.717 34.313s1.191 35.672-9.737 52.608c0 0 25.03 18.347 43.364 7.41 0 0-5.588-49.96-25.992-65.964 0 0-7.05 4.89-7.635 5.946z" transform="translate(87.783 51.535)"/>
        <path fill="#23286B" d="M160.842 78.766s36.976 21.23 36.976 71.333c0 0-14.808 2.117-27.851-5.998 0 0-6.966-47.35-18.467-58.253l9.342-7.082z"/>
        <path fill="url(#f)" d="M95.065 114.658c-5.254 11.074-2.905 11.607-2.02 16.344.881 4.737-.805 5.618-8.828 5.137-8.019-.481-4.971-8.993-4.971-8.993s-.775 1.246-1.565-.335c-.79-1.58-.314-6.322 5.847-10.28 5.553-3.56 5.33-17.924 5.234-20.71a46.635 46.635 0 0 0 14.174 2.923c-1.168 2.235-3.953 7.666-7.87 15.914z" transform="translate(87.783 51.535)"/>
        <path fill="#E94A47" d="M174.991 79.938c-.087-1.397-4.133-1.087-8.475-3.144a26.64 26.64 0 0 0 8.085 1.366.19.19 0 0 0 0-.38 25.858 25.858 0 0 1-10.815-2.493 13.24 13.24 0 0 0-5.137-1.55c2.48-.437 6.48-2.074 9.385-7.824 4.508-8.925-9.408-19.124-24.597-11.965a6.784 6.784 0 0 0 .034 3.377 10.515 10.515 0 0 0 4.685 8.13c1.397.904 3.121 1.552 4.792 1.158a4.943 4.943 0 0 0 1.468-.641c.289-.094.555-.248.78-.453 1.862-1.667 4.802-.784 3.626 2.648a37.383 37.383 0 0 1-2.449 5.688c.49 9.22 9.114 13.926 9.114 13.926 7.936-.88 9.602-6.274 9.504-7.843zm-26.028-14.445a9.846 9.846 0 0 1-4.855-6.53 8.694 8.694 0 0 0 2.074 2.536c2.754 2.354 5.094 4.152 6.892 4.515-1.07.418-2.312.442-4.111-.52z"/>
        <path fill="#1C2868" d="M143.891 63.153a2.313 2.313 0 0 1-3.769-1.584c-.034-.35.508-.47.542-.114a1.762 1.762 0 0 0 2.856 1.288c.28-.216.654.192.371.41z"/>
    </g>
</svg>
