<svg xmlns="http://www.w3.org/2000/svg" width="40" height="40" viewBox="0 0 40 40">
    <path fill="#FFF" fill-rule="evenodd" d="M15.068 25.569c-.452-.452-.216-.325-1.306-.616-.494-.133-.929-.387-1.322-.693l-2.358 5.783a.832.832 0 0 0 .802 1.145l2.739-.104 1.884 1.99a.832.832 0 0 0 1.374-.258l2.705-6.634a3.773 3.773 0 0 1-1.835.498 3.77 3.77 0 0 1-2.683-1.111zm14.85 4.474L27.56 24.26c-.393.306-.828.56-1.322.693-1.095.293-.855.165-1.306.616a3.771 3.771 0 0 1-2.683 1.11 3.779 3.779 0 0 1-1.836-.497l2.706 6.634a.832.832 0 0 0 1.374.257l1.884-1.99 2.739.105a.832.832 0 0 0 .802-1.145zm-6.227-5.65c.794-.809.885-.74 2.016-1.047a2.112 2.112 0 0 0 1.48-1.507c.389-1.476.288-1.298 1.349-2.378a2.156 2.156 0 0 0 .542-2.057c-.389-1.476-.39-1.27 0-2.747a2.156 2.156 0 0 0-.542-2.057c-1.061-1.08-.96-.903-1.349-2.378a2.112 2.112 0 0 0-1.48-1.507c-1.45-.395-1.275-.292-2.336-1.373a2.068 2.068 0 0 0-2.022-.551c-1.449.395-1.247.395-2.698 0a2.067 2.067 0 0 0-2.022.551c-1.06 1.08-.886.978-2.336 1.373a2.112 2.112 0 0 0-1.48 1.507c-.388 1.475-.287 1.298-1.348 2.378a2.155 2.155 0 0 0-.542 2.057c.388 1.475.389 1.269 0 2.746-.193.735.013 1.52.542 2.058 1.06 1.08.96.902 1.349 2.378.193.735.757 1.31 1.48 1.507 1.163.317 1.25.267 2.015 1.046.688.7 1.76.826 2.586.303a2.062 2.062 0 0 1 2.21 0 2.065 2.065 0 0 0 2.586-.303zm-8.595-8.528c0-2.756 2.196-4.99 4.904-4.99 2.708 0 4.904 2.234 4.904 4.99 0 2.757-2.196 4.992-4.904 4.992-2.708 0-4.904-2.235-4.904-4.992z" opacity=".336"/>
</svg>
