<svg xmlns="http://www.w3.org/2000/svg" width="155" height="42" viewBox="0 0 155 42">
    <defs>
        <filter id="a" width="102.2%" height="148.6%" x="-1.1%" y="-24.3%" filterUnits="objectBoundingBox">
            <feOffset dx="2" dy="2" in="SourceAlpha" result="shadowOffsetOuter1"/>
            <feGaussianBlur in="shadowOffsetOuter1" result="shadowBlurOuter1" stdDeviation="3"/>
            <feColorMatrix in="shadowBlurOuter1" result="shadowMatrixOuter1" values="0 0 0 0 0.722216048 0 0 0 0 0.752954049 0 0 0 0 0.782127491 0 0 0 0.5 0"/>
            <feMerge>
                <feMergeNode in="shadowMatrixOuter1"/>
                <feMergeNode in="SourceGraphic"/>
            </feMerge>
        </filter>
    </defs>
    <g fill="none" fill-rule="nonzero" filter="url(#a)" transform="translate(14.132 3.333)">
        <ellipse cx="17.611" cy="12.007" fill="#F22200" rx="7.004" ry="6.939"/>
        <ellipse cx="3.458" cy="23.804" fill="#EFC100" rx="3.458" ry="3.426"/>
        <ellipse cx="11.718" cy="21.707" fill="#52CE02" rx="2.466" ry="2.443"/>
        <ellipse cx="19.056" cy="28.401" fill="#0056D3" rx="4.816" ry="4.771"/>
        <path fill="#000" d="M55.171 17.6v1.462h-1.474V17.6h1.474zm0 2.931v9.742h-1.474v-9.749l1.474.007zM60.543 30.44l-1.376-.867a4.815 4.815 0 0 1-1.859-2.134 5.027 5.027 0 0 1 0-4.14 4.795 4.795 0 0 1 1.86-2.134 5.684 5.684 0 0 1 3.1-.868c1.783 0 3.124.631 4.023 1.894v-1.667h1.474v6.881c0 1.228-.098 2.134-.295 2.719a5.563 5.563 0 0 1-1.359 2.15 5.45 5.45 0 0 1-3.998 1.648 7.406 7.406 0 0 1-2.977-.567v.01a5.12 5.12 0 0 1-2.162-1.691l1.197-.852a3.56 3.56 0 0 0 1.547 1.195 5.93 5.93 0 0 0 2.395.443 4.034 4.034 0 0 0 2.946-1.206c.619-.614 1.01-1.5 1.17-2.655-.894 1.227-2.217 1.841-3.969 1.841h-1.717zm-.536-2.072a4.32 4.32 0 0 0 2.26.618 4.488 4.488 0 0 0 2.352-.61 3.38 3.38 0 0 0 1.36-1.524 3.656 3.656 0 0 0 0-2.958 3.332 3.332 0 0 0-1.36-1.514 4.442 4.442 0 0 0-2.351-.62 4.277 4.277 0 0 0-2.261.62 3.379 3.379 0 0 0-1.358 1.514 3.636 3.636 0 0 0 0 2.958c.288.63.761 1.158 1.358 1.516zM72.51 31.84a3.716 3.716 0 0 0 4.79-.559c.704-.785 1.056-1.768 1.056-2.949v-.246c-.84 1.286-2.012 1.93-3.513 1.93a4.747 4.747 0 0 1-3.54-1.488 5.016 5.016 0 0 1-1.44-3.63v-4.374h1.476v4.366a3.629 3.629 0 0 0 1.018 2.621 3.506 3.506 0 0 0 2.49 1.035c.936 0 1.833-.373 2.49-1.035a3.622 3.622 0 0 0 1.019-2.621v-4.366h1.474v7.8c0 1.561-.477 2.869-1.43 3.924a5.194 5.194 0 0 1-6.748.77 5.41 5.41 0 0 1-1.78-2.187l1.377-.54c.275.617.71 1.151 1.26 1.548zM90.637 28.563c-.858 1.305-2.088 1.958-3.69 1.957-2.851 0-5.162-2.29-5.162-5.113 0-2.824 2.31-5.113 5.161-5.113 1.603 0 2.833.652 3.691 1.957v-1.727h1.476v9.742h-1.476v-1.703zm0-3.169a3.47 3.47 0 0 0-1.09-2.57 3.708 3.708 0 0 0-4.649-.433 3.628 3.628 0 0 0-1.34 4.431 3.69 3.69 0 0 0 4.124 2.17 3.656 3.656 0 0 0 2.955-3.582v-.016zM95.366 22.02a4.22 4.22 0 0 1 3.513-1.726 4.747 4.747 0 0 1 3.54 1.478c.95.97 1.47 2.277 1.439 3.63v4.87h-1.476v-4.87c.027-.971-.34-1.912-1.02-2.611a3.498 3.498 0 0 0-2.488-1.037c-.937 0-1.834.373-2.489 1.037a3.606 3.606 0 0 0-1.02 2.61v4.872h-1.473v-9.749h1.474v1.496zM114.126 28.563c-.858 1.305-2.088 1.958-3.691 1.957-2.85 0-5.161-2.29-5.161-5.113 0-2.824 2.31-5.113 5.16-5.113 1.604 0 2.834.652 3.692 1.957v-1.727h1.475v9.742h-1.475v-1.703zm0-3.169a3.47 3.47 0 0 0-1.09-2.57 3.708 3.708 0 0 0-4.65-.433 3.628 3.628 0 0 0-1.34 4.431 3.69 3.69 0 0 0 4.125 2.17 3.656 3.656 0 0 0 2.955-3.582v-.016zM118.85 22.02a4.22 4.22 0 0 1 3.513-1.726 4.747 4.747 0 0 1 3.54 1.478 5.03 5.03 0 0 1 1.438 3.63v4.87h-1.474v-4.87c.027-.971-.34-1.912-1.02-2.611a3.498 3.498 0 0 0-2.488-1.037c-.937 0-1.834.373-2.489 1.037a3.606 3.606 0 0 0-1.02 2.61v4.872h-1.473v-9.749h1.474v1.496zM39.092 32.39L27.022 8.282l-.991-3.923.26-.14 2.967 2.993 10.657 21.534s-.565 1.403-.305 2.29c.26.888 1.508 1.214 3.016.024.943-1.52 15.136-24.125 15.136-24.125l.426.328-15.276 24.45s-2.972 2.033-3.82.677zM37.685 32.534l-2.293-4.517a.462.462 0 0 1 .21-.626.475.475 0 0 1 .633.207l2.292 4.517a.462.462 0 0 1-.211.626.473.473 0 0 1-.63-.207z"/>
        <path fill="#000" d="M54.882 6.184L40.6 28.934c-.142.386-.232.789-.267 1.199-.047.639.489.824.896.763.407-.061 1.272-.623 1.272-.623L56.71 7.444s-1.665.532-1.829-1.26z"/>
        <path fill="#3A3939" d="M44.609 21.397l9.463-14.943s1.13-3.13 1.13-3.815c0-.684-.345-.67-.754-.468-.41.202-6.428 4.876-6.428 4.876s-.253.154-.253 1.136c0 .98-.156 4.13-.785 6.339-.628 2.209-1.839 5.822-2.373 6.875z"/>
        <path fill="#6E6C6C" d="M40.553 27.707s3.238-7.307 3.364-13.322c.125-6.015-1.478-7.038-1.478-7.038s-.534-.72.567-1.59c1.101-.869 7.23-5.543 7.23-5.543s.81-.272.81.429v2.803L47.58 6.343s-.441.36-.503 1.478c-.062 1.118-.031 4.621-.629 6.69-.598 2.068-1.541 5.883-3.018 8.593a43.522 43.522 0 0 1-2.877 4.603z"/>
    </g>
</svg>
