<svg xmlns="http://www.w3.org/2000/svg" width="25" height="24" viewBox="0 0 25 24">
    <defs>
        <filter id="a" width="102.7%" height="104.6%" x="-1.3%" y="-2.3%" filterUnits="objectBoundingBox">
            <feOffset dx="2" dy="2" in="SourceAlpha" result="shadowOffsetOuter1"/>
            <feGaussianBlur in="shadowOffsetOuter1" result="shadowBlurOuter1" stdDeviation="2"/>
            <feColorMatrix in="shadowBlurOuter1" result="shadowMatrixOuter1" values="0 0 0 0 0.722216048 0 0 0 0 0.752954049 0 0 0 0 0.782127491 0 0 0 0.5 0"/>
            <feMerge>
                <feMergeNode in="shadowMatrixOuter1"/>
                <feMergeNode in="SourceGraphic"/>
            </feMerge>
        </filter>
    </defs>
    <path fill="#9CA2B0" fill-rule="evenodd" d="M16.5 6H14c0-1.103-.897-2-2-2s-2 .897-2 2H7.5A1.5 1.5 0 0 0 6 7.5v11A1.5 1.5 0 0 0 7.5 20h9a1.5 1.5 0 0 0 1.5-1.5v-11A1.5 1.5 0 0 0 16.5 6zM9 17.25a.748.748 0 0 1-.75-.75c0-.416.334-.75.75-.75s.75.334.75.75-.334.75-.75.75zm0-3a.748.748 0 0 1-.75-.75c0-.416.334-.75.75-.75s.75.334.75.75-.334.75-.75.75zm0-3a.748.748 0 0 1-.75-.75c0-.416.334-.75.75-.75s.75.334.75.75-.334.75-.75.75zm3-6c.416 0 .75.334.75.75s-.334.75-.75.75a.748.748 0 0 1-.75-.75c0-.416.334-.75.75-.75zm4 11.5a.25.25 0 0 1-.25.25h-4.5a.25.25 0 0 1-.25-.25v-.5a.25.25 0 0 1 .25-.25h4.5a.25.25 0 0 1 .25.25v.5zm0-3a.25.25 0 0 1-.25.25h-4.5a.25.25 0 0 1-.25-.25v-.5a.25.25 0 0 1 .25-.25h4.5a.25.25 0 0 1 .25.25v.5zm0-3a.25.25 0 0 1-.25.25h-4.5a.25.25 0 0 1-.25-.25v-.5a.25.25 0 0 1 .25-.25h4.5a.25.25 0 0 1 .25.25v.5z" filter="url(#a)" transform="translate(.5)"/>
</svg>
