<svg xmlns="http://www.w3.org/2000/svg" xmlns:xlink="http://www.w3.org/1999/xlink" width="34" height="34" viewBox="0 0 34 34">
    <defs>
        <linearGradient id="b" x1="38.424%" x2="67.544%" y1="100%" y2="0%">
            <stop offset="0%" stop-color="#37A4FF"/>
            <stop offset="100%" stop-color="#007CD3"/>
        </linearGradient>
        <path id="a" d="M27.562 12.95c-.208-.172-4.946-3.982-5.987-4.81-.979-.783-2.652-2.473-4.575-2.473-1.913 0-3.57 1.67-4.575 2.473-1.083.86-5.802 4.657-5.983 4.805a2.125 2.125 0 0 0-.775 1.642v11.621c0 1.174.951 2.125 2.125 2.125h18.416a2.125 2.125 0 0 0 2.125-2.125v-11.62c0-.634-.282-1.234-.77-1.638zm-1.354 12.993a.266.266 0 0 1-.265.265H8.057a.266.266 0 0 1-.265-.265v-11.23c0-.08.036-.156.098-.206.703-.568 4.817-3.876 5.86-4.706.804-.642 2.205-2.01 3.25-2.01 1.049 0 2.473 1.39 3.25 2.01 1.044.83 5.158 4.14 5.86 4.707.062.05.098.126.098.206v11.229zm-1.416-8.31a.531.531 0 0 1-.077.752 1146.36 1146.36 0 0 1-3.14 2.517c-1.005.803-2.662 2.473-4.575 2.473-1.924 0-3.599-1.693-4.575-2.473-.5-.397-1.848-1.48-3.14-2.517a.531.531 0 0 1-.077-.752l.676-.82a.531.531 0 0 1 .742-.077c1.267 1.018 2.593 2.082 3.124 2.505.777.62 2.201 2.009 3.25 2.009 1.045 0 2.446-1.367 3.25-2.01.53-.422 1.857-1.486 3.124-2.504a.531.531 0 0 1 .743.077l.675.82z"/>
    </defs>
    <g fill="none" fill-rule="evenodd">
        <use fill="#0056D3" xlink:href="#a"/>
        <use fill="url(#b)" xlink:href="#a"/>
    </g>
</svg>
